<svg class="logo" viewBox="0 0 70.001 23.058" xmlns="http://www.w3.org/2000/svg">
    <g stroke-width="1.813" aria-label="John Proctor">
        <path d="M.425 8.113c.136.232.397.348.764.348.145 0 .29-.058.436-.193.145-.136.222-.358.222-.677V.338h.774v7.35c0 .531-.136.918-.397 1.17-.27.25-.628.377-1.083.377-.261 0-.503-.049-.715-.165S.068 8.848 0 8.751zM3.783 3.723c0-.493.078-.948.252-1.373.174-.426.415-.793.725-1.103s.667-.56 1.093-.735c.415-.174.87-.27 1.363-.27s.948.096 1.363.27c.416.175.784.426 1.093.735.31.31.542.677.716 1.103.174.425.26.88.26 1.373s-.086.948-.26 1.373a3.332 3.332 0 01-.716 1.112c-.31.31-.677.56-1.093.735-.415.174-.87.261-1.363.261s-.948-.087-1.363-.261c-.426-.174-.784-.426-1.093-.735s-.551-.687-.725-1.112a3.575 3.575 0 01-.252-1.373zm.87 0c0 .512.107.967.33 1.363a2.498 2.498 0 002.234 1.296c.492 0 .927-.116 1.314-.348.387-.232.687-.542.909-.948.222-.396.338-.85.338-1.363 0-.503-.116-.957-.338-1.364a2.516 2.516 0 00-.909-.947c-.387-.232-.822-.348-1.315-.348a2.498 2.498 0 00-2.234 1.295c-.222.407-.329.861-.329 1.364zM11.8.338h.822v2.708h3.723V.338h.822v6.77h-.822V3.82h-3.723v3.287H11.8zM23.837.338h.822v7.108l-5.125-5.377v5.038h-.822V0l5.125 5.376zM29.941 4.4v2.707h-.822V.338h1.837c.436 0 .822.087 1.17.252a2 2 0 01.822.696c.203.31.31.667.31 1.083a1.924 1.924 0 01-1.132 1.789 2.695 2.695 0 01-1.17.242zm0-.774h1.015c.435 0 .793-.106 1.064-.319.27-.213.416-.522.416-.938 0-.416-.145-.725-.416-.938-.27-.213-.629-.319-1.064-.319h-1.015zM35.248 4.4v2.707h-.822V.338h1.837c.436 0 .822.087 1.17.252a2 2 0 01.822.696c.203.31.31.667.31 1.083 0 .513-.155.938-.455 1.276-.3.339-.686.561-1.16.677l2.02 2.785h-1.014L36.07 4.4zm0-.725h1.015c.435 0 .793-.107 1.064-.339.27-.232.416-.551.416-.967 0-.416-.145-.735-.416-.967-.27-.222-.629-.338-1.064-.338h-1.015zM39.459 3.723c0-.493.077-.948.251-1.373.174-.426.416-.793.726-1.103s.667-.56 1.092-.735a3.5 3.5 0 011.364-.27 3.5 3.5 0 011.363.27 3.277 3.277 0 011.808 1.837c.174.426.262.88.262 1.374 0 .493-.088.948-.262 1.373-.174.425-.406.803-.715 1.112s-.677.56-1.093.735c-.416.174-.87.261-1.363.261s-.948-.087-1.364-.261c-.425-.174-.783-.426-1.092-.735s-.552-.687-.726-1.112a3.575 3.575 0 01-.251-1.373zm.87 0c0 .512.107.967.33 1.363a2.498 2.498 0 002.234 1.296c.492 0 .927-.116 1.314-.348.387-.232.686-.542.909-.948.222-.396.338-.85.338-1.363 0-.503-.116-.957-.338-1.364a2.516 2.516 0 00-.91-.947 2.498 2.498 0 00-1.314-.348 2.498 2.498 0 00-2.234 1.295c-.222.407-.329.861-.329 1.364zM47.96 3.723c0 .522.116.986.348 1.383.232.406.542.715.928.938.378.232.793.338 1.238.338.474 0 .9-.087 1.267-.28.367-.184.667-.426.909-.726V6.46c-.29.252-.6.445-.929.561-.338.126-.754.184-1.247.184-.474 0-.919-.077-1.325-.251a3.394 3.394 0 01-1.073-.726 3.356 3.356 0 01-.725-1.112 3.643 3.643 0 01-.261-1.392c0-.503.087-.967.26-1.393.175-.425.417-.793.726-1.102a3.34 3.34 0 012.398-.986c.493 0 .909.067 1.247.183.33.126.639.31.929.561V2.07c-.242-.3-.542-.541-.91-.725s-.792-.28-1.266-.28c-.445 0-.86.116-1.238.338a2.615 2.615 0 00-.928.938c-.232.396-.348.86-.348 1.383zM53.145 1.112V.338h4.303v.774h-1.74v5.995h-.822V1.112zM57.439 3.723c0-.493.077-.948.251-1.373.174-.426.416-.793.726-1.103.31-.309.667-.56 1.092-.735a3.5 3.5 0 011.364-.27 3.5 3.5 0 011.363.27c.416.175.783.426 1.093.735.31.31.541.677.715 1.103s.262.88.262 1.373-.088.948-.262 1.373a3.332 3.332 0 01-.715 1.112c-.31.31-.677.56-1.093.735-.416.174-.87.261-1.363.261s-.948-.087-1.364-.261a3.297 3.297 0 01-1.092-.735 3.356 3.356 0 01-.726-1.112 3.575 3.575 0 01-.251-1.373zm.87 0c0 .512.107.967.33 1.363a2.498 2.498 0 002.234 1.296c.492 0 .927-.116 1.314-.348.387-.232.686-.542.909-.948.222-.396.338-.85.338-1.363 0-.503-.116-.957-.338-1.364a2.516 2.516 0 00-.91-.947 2.498 2.498 0 00-1.314-.348 2.498 2.498 0 00-2.234 1.295c-.222.407-.329.861-.329 1.364zM66.278 4.4v2.707h-.822V.338h1.837c.436 0 .822.087 1.17.252a2 2 0 01.822.696c.203.31.31.667.31 1.083 0 .513-.155.938-.455 1.276s-.686.561-1.16.677L70 7.107h-1.014L67.1 4.4zm0-.725h1.015c.435 0 .793-.107 1.064-.339.27-.232.416-.551.416-.967 0-.416-.145-.735-.416-.967-.27-.222-.629-.338-1.064-.338h-1.015z"/>
    </g>
    <g aria-label="is the">
        <path d="M3.276 12.398h.426v2.453h-.426zm-.08-1.013c0-.08.026-.15.085-.208.059-.054.128-.086.208-.086s.15.032.208.086c.053.058.085.128.085.208s-.032.149-.085.208c-.059.058-.128.085-.208.085s-.15-.027-.208-.085a.282.282 0 01-.085-.208zM4.65 13.988c.086.15.187.277.315.373a.595.595 0 00.363.144.517.517 0 00.282-.069.254.254 0 00.118-.23.303.303 0 00-.08-.213.802.802 0 00-.208-.149 3.081 3.081 0 00-.267-.117 3.645 3.645 0 01-.33-.144.75.75 0 01-.267-.214c-.075-.085-.107-.208-.107-.362 0-.15.037-.278.117-.374a.693.693 0 01.3-.218 1.074 1.074 0 01.912.07c.16.095.276.207.351.34l-.341.219c-.059-.08-.139-.15-.24-.213a.57.57 0 00-.57-.038c-.076.038-.113.102-.113.198 0 .08.032.144.096.192s.139.09.235.122c.096.032.186.07.277.107.117.048.224.101.33.165a.882.882 0 01.251.235.603.603 0 01.096.347c0 .266-.085.453-.245.57a.99.99 0 01-.597.176.95.95 0 01-.608-.202 1.287 1.287 0 01-.406-.507zM1.571 18.35h.427v.853h.4v.4h-.4v2.054h-.427v-2.054h-.4v-.4h.4zM4.4 20.163c0-.405-.177-.613-.523-.613a.61.61 0 00-.454.176.587.587 0 00-.17.437v1.493h-.427v-4.16h.427v2.096c.074-.133.17-.24.298-.32s.272-.122.432-.122c.25 0 .454.085.608.245.155.16.235.4.235.715v1.546h-.427zM5.852 20.537c.016.25.096.443.235.576.138.133.32.197.544.197a.791.791 0 00.453-.122c.128-.08.23-.187.315-.32l.346.218a2.142 2.142 0 01-.272.331 1.081 1.081 0 01-.362.219 1.55 1.55 0 01-.534.074c-.224 0-.421-.053-.597-.165a1.14 1.14 0 01-.416-.453 1.405 1.405 0 01-.15-.662c0-.042 0-.09.006-.133 0-.043.005-.085.016-.128.032-.203.107-.379.213-.533.107-.15.24-.272.41-.358.172-.085.358-.128.572-.128.229 0 .432.054.608.155.17.107.309.25.405.437s.144.411.144.667v.064c0 .021-.005.043-.005.064zm.01-.363h1.462a.806.806 0 00-.203-.469c-.117-.117-.277-.181-.49-.181a.81.81 0 00-.518.176.666.666 0 00-.25.474z"/>
    </g>
    <g stroke-width="3.262" aria-label="Villain">
        <path d="M16.052 19.701l4.001-9.428h1.653l-5.654 12.786-5.654-12.786h1.653zM23.187 10.272h1.479v12.177h-1.479zM27.434 10.272h1.479v10.785h4.783v1.392h-6.262zM35.248 10.272h1.479v10.785h4.783v1.392h-6.262zM45.468 18.796l-1.548 3.653h-1.653l5.654-12.786 5.653 12.786h-1.652l-1.548-3.653zm.591-1.392h3.723l-1.861-4.383zM55.056 10.272h1.479v12.177h-1.479zM68.522 10.272h1.479v12.786l-9.22-9.672v9.063h-1.479V9.663l9.22 9.672z"/>
    </g>
</svg>