<svg class="logo" title="Barefoot in the Park" version="1.1" viewBox="0 0 70 45.103" xmlns="http://www.w3.org/2000/svg">
 <g>
  <g stroke-width=".36933" aria-label="BAREFOOT">
   <path d="m4.0183 5.215c0.67957 0.14773 1.241 0.42843 1.6694 0.85685 0.41365 0.42843 0.63525 1.0194 0.63525 1.758 0 0.67957-0.16251 1.2557-0.47275 1.6989-0.31024 0.4432-0.72389 0.78298-1.2557 1.0046-0.53184 0.2216-1.1228 0.32501-1.7876 0.32501h-2.8069v-10.341h2.6592c0.91594 0 1.6694 0.2216 2.2308 0.63525 0.56138 0.42843 0.84208 1.0785 0.84208 1.9501 0 0.53184-0.16251 0.98981-0.45797 1.3444-0.31024 0.35456-0.72389 0.62048-1.2557 0.76821zm-2.7626 0.57616v3.9592h1.5512c0.6648 0 1.2114-0.16251 1.6251-0.51707 0.41365-0.35456 0.63525-0.84208 0.63525-1.4773 0-0.63525-0.2216-1.1228-0.63525-1.4626-0.41365-0.32501-0.96026-0.50229-1.6251-0.50229zm0-1.0932h1.4035c0.51707 0 0.94549-0.13296 1.3-0.39888 0.33979-0.26592 0.51707-0.63525 0.51707-1.1228 0-0.48752-0.17728-0.87162-0.51707-1.1375-0.35456-0.26592-0.78298-0.41365-1.3-0.41365h-1.4035z"/>
   <path d="m9.6317 7.756-1.3148 3.1024h-1.4035l4.8013-10.858 4.8013 10.858h-1.4035l-1.3148-3.1024zm0.50229-1.1819h3.1615l-1.5807-3.7229z"/>
   <path d="m19.03 6.7218v4.1365h-1.2557v-10.341h2.8069c0.6648 0 1.2557 0.13296 1.7876 0.38411 0.53184 0.25115 0.94549 0.6057 1.2557 1.0637 0.31024 0.47275 0.47274 1.0194 0.47274 1.6546 0 0.78298-0.23637 1.433-0.69434 1.9501-0.45797 0.51707-1.0489 0.85685-1.7728 1.0341l3.0876 4.2547h-1.5512l-2.8808-4.1365zm0-1.108h1.5512c0.6648 0 1.2114-0.16251 1.6251-0.51707 0.41365-0.35456 0.63525-0.84208 0.63525-1.4773 0-0.63525-0.2216-1.1228-0.63525-1.4773-0.41365-0.33979-0.96026-0.51707-1.6251-0.51707h-1.5512z"/>
   <path d="m27.311 5.8354v3.8411h4.6536v1.1819h-5.9093v-10.341h5.9093v1.1819h-4.6536v2.9547h4.3581v1.1819z"/>
   <path d="m35.448 5.8354v5.0229h-1.2557v-10.341h5.3184v1.1819h-4.0627v2.9547h3.9149v1.1819z"/>
   <path d="m40.988 5.6877c0-0.75344 0.11819-1.4478 0.3841-2.0978s0.63525-1.2114 1.108-1.6842c0.47274-0.47275 1.0194-0.85685 1.6694-1.1228 0.63525-0.26592 1.3296-0.41365 2.083-0.41365 0.75344 0 1.4478 0.14773 2.083 0.41365 0.63525 0.26592 1.1966 0.65002 1.6694 1.1228 0.47274 0.47275 0.8273 1.0341 1.0932 1.6842 0.26592 0.65002 0.39888 1.3444 0.39888 2.0978 0 0.75344-0.13296 1.4478-0.39888 2.0978-0.26592 0.65002-0.62048 1.2262-1.0932 1.6989-0.47274 0.47275-1.0341 0.85685-1.6694 1.1228-0.63525 0.26592-1.3296 0.39888-2.083 0.39888-0.75344 0-1.4478-0.13296-2.083-0.39888-0.65002-0.26592-1.1966-0.65002-1.6694-1.1228-0.47274-0.47275-0.84208-1.0489-1.108-1.6989-0.26592-0.65002-0.3841-1.3444-0.3841-2.0978zm1.3296 0c0 0.78298 0.16251 1.4773 0.50229 2.083 0.33978 0.62048 0.81253 1.0932 1.4035 1.4478 0.59093 0.35456 1.2557 0.53184 2.0092 0.53184 0.75344 0 1.4182-0.17728 2.0092-0.53184 0.59093-0.35456 1.0489-0.8273 1.3887-1.4478 0.33979-0.6057 0.51706-1.3 0.51706-2.083 0-0.76821-0.17728-1.4626-0.51706-2.083-0.33978-0.6057-0.79776-1.0932-1.3887-1.4478s-1.2557-0.53184-2.0092-0.53184c-0.75344 0-1.4182 0.17728-2.0092 0.53184-0.59093 0.35456-1.0637 0.84208-1.4035 1.4478-0.33979 0.62048-0.50229 1.3148-0.50229 2.083z"/>
   <path d="m52.645 5.6877c0-0.75344 0.11819-1.4478 0.3841-2.0978 0.26592-0.65002 0.63525-1.2114 1.108-1.6842 0.47274-0.47275 1.0194-0.85685 1.6694-1.1228 0.63525-0.26592 1.3296-0.41365 2.083-0.41365 0.75344 0 1.4478 0.14773 2.083 0.41365 0.63525 0.26592 1.1966 0.65002 1.6694 1.1228 0.47274 0.47275 0.8273 1.0341 1.0932 1.6842 0.26592 0.65002 0.39888 1.3444 0.39888 2.0978 0 0.75344-0.13296 1.4478-0.39888 2.0978-0.26592 0.65002-0.62048 1.2262-1.0932 1.6989-0.47274 0.47275-1.0341 0.85685-1.6694 1.1228-0.63525 0.26592-1.3296 0.39888-2.083 0.39888-0.75344 0-1.4478-0.13296-2.083-0.39888-0.65002-0.26592-1.1966-0.65002-1.6694-1.1228-0.47274-0.47275-0.84208-1.0489-1.108-1.6989-0.26592-0.65002-0.3841-1.3444-0.3841-2.0978zm1.3296 0c0 0.78298 0.16251 1.4773 0.50229 2.083 0.33978 0.62048 0.81253 1.0932 1.4035 1.4478 0.59093 0.35456 1.2557 0.53184 2.0092 0.53184 0.75344 0 1.4182-0.17728 2.0092-0.53184 0.59093-0.35456 1.0489-0.8273 1.3887-1.4478 0.33979-0.6057 0.51706-1.3 0.51706-2.083 0-0.76821-0.17728-1.4626-0.51706-2.083-0.33978-0.6057-0.79776-1.0932-1.3887-1.4478s-1.2557-0.53184-2.0092-0.53184c-0.75344 0-1.4182 0.17728-2.0092 0.53184-0.59093 0.35456-1.0637 0.84208-1.4035 1.4478-0.33979 0.62048-0.50229 1.3148-0.50229 2.083z"/>
   <path d="m63.426 1.6989v-1.1819h6.5741v1.1819h-2.6592v9.1594h-1.2557v-9.1594z"/>
  </g>
  <g stroke-width=".25316" aria-label="in the">
   <path d="m23.726 15.49h0.81013v4.6582h-0.81013zm-0.1519-1.924c0-0.1519 0.05063-0.28354 0.16203-0.39494 0.11139-0.10127 0.24304-0.16203 0.39494-0.16203 0.1519 0 0.28354 0.06076 0.39494 0.16203 0.10127 0.11139 0.16202 0.24304 0.16202 0.39494 0 0.1519-0.06076 0.28354-0.16202 0.39494-0.11139 0.11139-0.24304 0.16203-0.39494 0.16203-0.1519 0-0.28354-0.05063-0.39494-0.16203-0.11139-0.11139-0.16203-0.24304-0.16203-0.39494z"/>
   <path d="m29.192 17.313c0-0.76962-0.33418-1.1646-0.9924-1.1646-0.35443 0-0.63798 0.11139-0.86076 0.33418-0.22278 0.22278-0.32405 0.4962-0.32405 0.83038v2.8354h-0.81013v-4.6582h0.81013v0.73924c0.14177-0.25316 0.32405-0.4557 0.56709-0.6076 0.24304-0.1519 0.51646-0.23291 0.82025-0.23291 0.47595 0 0.86076 0.16203 1.1544 0.46582 0.29367 0.3038 0.44557 0.75949 0.44557 1.357v2.9367h-0.81013z"/>
   <path d="m34.622 13.87h0.81013v1.6203h0.75949v0.75949h-0.75949v3.8987h-0.81013v-3.8987h-0.75949v-0.75949h0.75949z"/>
   <path d="m39.991 17.313c0-0.76962-0.33418-1.1646-0.9924-1.1646-0.35443 0-0.63797 0.11139-0.86076 0.33418s-0.32405 0.4962-0.32405 0.83038v2.8354h-0.81013v-7.8987h0.81013v3.9797c0.14177-0.25316 0.32405-0.4557 0.56709-0.6076 0.24304-0.1519 0.51646-0.23291 0.82025-0.23291 0.47595 0 0.86076 0.16203 1.1544 0.46582 0.29367 0.3038 0.44557 0.75949 0.44557 1.357v2.9367h-0.81013z"/>
   <path d="m42.75 18.022c0.03038 0.47595 0.18228 0.84051 0.44557 1.0937 0.26329 0.25316 0.6076 0.37468 1.0329 0.37468 0.33418 0 0.61772-0.07089 0.86076-0.23291 0.24304-0.1519 0.43544-0.35443 0.59747-0.6076l0.65823 0.41519c-0.16202 0.24304-0.33418 0.44557-0.51646 0.62785-0.1924 0.18228-0.42532 0.31392-0.68861 0.41519-0.27342 0.10126-0.6076 0.14177-1.0127 0.14177-0.42532 0-0.8-0.10127-1.1342-0.31392-0.33418-0.20253-0.59747-0.4962-0.78987-0.86076s-0.28354-0.78987-0.28354-1.2557c0-0.08101 0-0.17215 0.01013-0.25316 0-0.08101 0.01013-0.16202 0.03038-0.24304 0.06076-0.38481 0.20253-0.71899 0.40506-1.0127 0.20253-0.28354 0.4557-0.51646 0.77975-0.67848 0.32405-0.16202 0.67848-0.24304 1.0835-0.24304 0.43544 0 0.82025 0.10127 1.1544 0.29367 0.32405 0.20253 0.58734 0.47595 0.76962 0.83038 0.18228 0.35443 0.27342 0.77975 0.27342 1.2658v0.12152c0 0.04051-0.01013 0.08101-0.01013 0.12152zm0.02025-0.68861h2.7747c-0.04051-0.36456-0.17215-0.65823-0.38481-0.89114-0.22278-0.22278-0.52658-0.3443-0.93164-0.3443-0.37468 0-0.69874 0.11139-0.98228 0.33418s-0.43544 0.52658-0.47595 0.90127z"/>
  </g>
  <g stroke-width=".80304" aria-label="PARK">
   <path d="m2.7303 36.109v8.994h-2.7303v-22.485h6.1031c1.4455 0 2.7303 0.2891 3.8867 0.83516 1.1564 0.54607 2.0558 1.317 2.7303 2.3128 0.67455 1.0279 1.0279 2.2164 1.0279 3.5976s-0.35334 2.5697-1.0279 3.5976c-0.67455 1.0279-1.574 1.7988-2.7303 2.3449-1.1564 0.54607-2.4412 0.80304-3.8867 0.80304zm0-2.5697h3.3728c1.4455 0 2.634-0.35334 3.5334-1.06 0.8994-0.70668 1.3812-1.7346 1.3812-3.1158s-0.48182-2.4091-1.3812-3.1158c-0.8994-0.70668-2.0879-1.06-3.5334-1.06h-3.3728z"/>
   <path d="m18.872 38.357-2.8588 6.7455h-3.0516l10.44-23.609 10.44 23.609h-3.0516l-2.8588-6.7455zm1.0921-2.5697h6.874l-3.437-8.0946z"/>
   <path d="m39.306 36.109v8.994h-2.7303v-22.485h6.1031c1.4455 0 2.7303 0.2891 3.8867 0.83516s2.0558 1.317 2.7303 2.3128c0.67455 1.0279 1.0279 2.2164 1.0279 3.5976 0 1.7024-0.51395 3.1158-1.5097 4.2401-0.99577 1.1243-2.2806 1.8631-3.8546 2.2485l6.7134 9.251h-3.3728l-6.2637-8.994zm0-2.4091h3.3728c1.4455 0 2.634-0.35334 3.5334-1.1243 0.8994-0.77092 1.3812-1.8309 1.3812-3.2122s-0.48182-2.4412-1.3812-3.2122c-0.8994-0.7388-2.0879-1.1243-3.5334-1.1243h-3.3728z"/>
   <path d="m66.145 22.618h3.3728l-9.7328 10.536 10.215 11.949h-3.3728l-9.3153-10.921v10.921h-2.7303v-22.485h2.7303v9.6686z"/>
  </g>
 </g>
 <path d="m4.5776e-7 15.999h19.892v0.501h-19.892z" stroke-width=".58776"/>
 <path d="m50.108 15.999h19.892v0.501h-19.892z" stroke-width=".58776"/>
</svg>
