<svg class="logo" viewBox="0 0 70.001 24.355" xmlns="http://www.w3.org/2000/svg">
  <g aria-label="Shakespeare">
    <path d="M.794 5.61c.232.53.508.948.827 1.257.31.309.706.463 1.191.463.441 0 .772-.11.993-.33.22-.221.33-.53.33-.916 0-.33-.099-.595-.275-.816a2.223 2.223 0 0 0-.684-.53 11.557 11.557 0 0 0-.849-.363 6.607 6.607 0 0 1-.628-.243c-.22-.099-.43-.231-.629-.386a1.885 1.885 0 0 1-.496-.595c-.132-.243-.188-.54-.188-.893 0-.386.089-.728.276-1.026.177-.297.441-.529.772-.705.33-.166.728-.254 1.19-.254.42 0 .773.077 1.082.232.308.154.562.352.782.595.21.254.386.53.519.827l-.761.507a4.173 4.173 0 0 0-.408-.606 1.793 1.793 0 0 0-.563-.474 1.513 1.513 0 0 0-.75-.188c-.385 0-.672.1-.87.298-.199.198-.287.474-.287.805 0 .253.077.463.253.64.166.176.386.32.662.451.265.133.562.265.871.375.199.078.408.177.64.287.22.121.44.265.64.441.198.177.352.386.484.64.122.253.188.551.188.904 0 .441-.1.827-.298 1.158-.198.33-.463.595-.816.772-.353.187-.76.275-1.235.275-.64 0-1.19-.187-1.676-.584C.596 7.23.243 6.724.001 6.084zM6.493.38h.938v3.087h4.245V.38h.937v7.719h-.937v-3.75H7.431V8.1h-.938zM15.578 5.78l-.981 2.316h-1.048L17.133-.01l3.584 8.105h-1.048l-.981-2.316zm.375-.882h2.36l-1.18-2.779zM25.625.38h1.158l-3.341 3.617 3.506 4.102H25.79l-3.197-3.75V8.1h-.938V.38h.938V3.7zM28.816 4.35v2.867h3.473v.882h-4.41V.38h4.41v.883h-3.473v2.205h3.253v.882zM34.305 5.61c.232.53.507.948.827 1.257.309.309.706.463 1.19.463.442 0 .773-.11.993-.33.22-.221.331-.53.331-.916 0-.33-.1-.595-.276-.816a2.223 2.223 0 0 0-.683-.53 11.557 11.557 0 0 0-.85-.363 6.607 6.607 0 0 1-.628-.243c-.22-.099-.43-.231-.628-.386-.199-.154-.364-.352-.497-.595s-.187-.54-.187-.893c0-.386.088-.728.276-1.026.176-.297.44-.529.772-.705.33-.166.727-.254 1.19-.254.42 0 .772.077 1.081.232.309.154.562.352.783.595.21.254.386.53.518.827l-.76.507a4.173 4.173 0 0 0-.409-.606c-.154-.199-.341-.353-.562-.474s-.463-.188-.75-.188c-.386 0-.672.1-.87.298-.2.198-.288.474-.288.805 0 .253.078.463.254.64.165.176.386.32.662.451.264.133.562.265.87.375.2.078.409.177.64.287.22.121.441.265.64.441s.353.386.485.64c.121.253.187.551.187.904 0 .441-.099.827-.297 1.158-.199.33-.463.595-.816.772-.353.187-.761.275-1.235.275-.64 0-1.191-.187-1.676-.584-.486-.397-.838-.904-1.08-1.544zM40.942 5.01v3.088h-.937V.378H42.1c.496 0 .937.1 1.334.287.397.188.706.453.937.794.232.353.353.761.353 1.235s-.121.883-.353 1.235c-.231.353-.54.618-.937.805-.397.188-.838.276-1.334.276zm0-.882H42.1c.496 0 .904-.121 1.213-.364.308-.243.474-.595.474-1.07s-.166-.827-.474-1.07c-.309-.242-.717-.363-1.213-.363h-1.158zM46.993 4.35v2.867h3.473v.882h-4.41V.38h4.41v.883h-3.473v2.205h3.253v.882zM53.331 5.78l-.981 2.316h-1.048L54.886-.01l3.584 8.105h-1.048l-.981-2.316zm.375-.882h2.36l-1.18-2.779zM60.346 5.01v3.088h-.937V.378h2.095c.496 0 .937.1 1.334.287.397.188.706.453.937.794.232.353.353.761.353 1.235 0 .585-.176 1.07-.518 1.456-.342.386-.783.64-1.323.772l2.304 3.175h-1.157l-2.15-3.087zm0-.827h1.158c.496 0 .904-.121 1.213-.386.308-.265.474-.628.474-1.103s-.166-.838-.474-1.102c-.309-.254-.717-.386-1.213-.386h-1.158zM66.527 4.35v2.867H70v.882h-4.41V.38H70v.883h-3.473v2.205h3.253v.882z"/>
  </g>
  <g aria-label="in Love">
    <path d="M0 9.9h1.671v13.764H0zM15.221 9.9h1.671v14.452L6.472 13.42v10.244H4.8V9.212l10.421 10.932zM25.96 9.9h1.671v12.191h5.407v1.573H25.96zM33.431 16.78c0-1.003.157-1.927.511-2.792s.846-1.612 1.475-2.241a6.703 6.703 0 0 1 2.222-1.495c.845-.354 1.77-.55 2.772-.55s1.927.196 2.773.55a6.911 6.911 0 0 1 2.221 1.495c.63.629 1.101 1.376 1.455 2.241s.531 1.79.531 2.792-.177 1.927-.53 2.792c-.355.865-.826 1.632-1.456 2.261a6.91 6.91 0 0 1-2.221 1.495c-.846.353-1.77.53-2.773.53s-1.927-.177-2.772-.53a6.704 6.704 0 0 1-2.222-1.495 6.823 6.823 0 0 1-1.475-2.261c-.354-.865-.511-1.79-.511-2.792zm1.77 0c0 1.042.216 1.966.668 2.772a5.027 5.027 0 0 0 1.868 1.927c.787.472 1.671.708 2.674.708s1.888-.236 2.674-.708a4.979 4.979 0 0 0 1.849-1.927c.452-.806.688-1.73.688-2.772 0-1.022-.236-1.947-.688-2.772a5.117 5.117 0 0 0-1.849-1.927c-.786-.472-1.671-.708-2.674-.708s-1.887.236-2.674.708a5.168 5.168 0 0 0-1.868 1.927c-.452.825-.668 1.75-.668 2.772zM54.071 20.56l4.522-10.657h1.868l-6.39 14.452-6.39-14.452h1.868zM63.807 16.98v5.112h6.194v1.573h-7.865V9.901H70v1.573h-6.194v3.933h5.8v1.573z"/>
  </g>
</svg>
