<?xml version="1.0" encoding="UTF-8" standalone="no"?>
<!-- Created with Inkscape (http://www.inkscape.org/) -->

<svg
   xmlns:dc="http://purl.org/dc/elements/1.1/"
   xmlns:cc="http://creativecommons.org/ns#"
   xmlns:rdf="http://www.w3.org/1999/02/22-rdf-syntax-ns#"
   xmlns:svg="http://www.w3.org/2000/svg"
   xmlns="http://www.w3.org/2000/svg"
   xmlns:sodipodi="http://sodipodi.sourceforge.net/DTD/sodipodi-0.dtd"
   xmlns:inkscape="http://www.inkscape.org/namespaces/inkscape"
   width="70.089005mm"
   height="42.039394mm"
   viewBox="0 0 70.089005 42.039394"
   version="1.1"
   id="svg24"
   sodipodi:docname="logo.svg"
   inkscape:version="0.92.3 (5aff6ba, 2018-11-25)">
  <defs
     id="defs18" />
  <sodipodi:namedview
     id="base"
     pagecolor="#ffffff"
     bordercolor="#666666"
     borderopacity="1.0"
     inkscape:pageopacity="0.0"
     inkscape:pageshadow="2"
     inkscape:zoom="1.4"
     inkscape:cx="25.753932"
     inkscape:cy="-0.36507627"
     inkscape:document-units="mm"
     inkscape:current-layer="layer1"
     showgrid="false"
     inkscape:window-width="1853"
     inkscape:window-height="1016"
     inkscape:window-x="67"
     inkscape:window-y="27"
     inkscape:window-maximized="1"
     fit-margin-top="0"
     fit-margin-left="0"
     fit-margin-right="0"
     fit-margin-bottom="0" />
  <metadata
     id="metadata21">
    <rdf:RDF>
      <cc:Work
         rdf:about="">
        <dc:format>image/svg+xml</dc:format>
        <dc:type
           rdf:resource="http://purl.org/dc/dcmitype/StillImage" />
        <dc:title></dc:title>
      </cc:Work>
    </rdf:RDF>
  </metadata>
  <g
     inkscape:label="Layer 1"
     inkscape:groupmode="layer"
     id="layer1"
     transform="translate(-32.100305,-39.442005)">
    <g
       aria-label="thomas"
       style="font-style:normal;font-weight:normal;font-size:23.77578545px;line-height:1.25;font-family:sans-serif;letter-spacing:0px;word-spacing:0px;fill:#000000;fill-opacity:1;stroke:none;stroke-width:0.59439462"
       id="text47">
      <path
         d="m 32.100305,47.050256 v 1.783184 h 5.468431 v -1.783184 z m 1.783184,-3.804125 v 14.740987 h 1.902063 V 43.246131 Z"
         style="font-style:normal;font-variant:normal;font-weight:normal;font-stretch:normal;font-family:'Jost*';-inkscape-font-specification:'Jost*';stroke-width:0.59439462"
         id="path3885"
         inkscape:connector-curvature="0" />
      <path
         d="m 41.378434,39.442005 h -1.902063 v 18.545113 h 1.902063 z m 5.111794,11.887893 v 6.65722 h 1.902063 V 51.09214 q 0,-1.426547 -0.475516,-2.377579 -0.45174,-0.951031 -1.307668,-1.426547 -0.832153,-0.475515 -1.97339,-0.475515 -1.141238,0 -2.020942,0.594394 -0.855928,0.594395 -1.35522,1.616754 -0.499291,0.998583 -0.499291,2.306251 h 0.61817 q 0,-0.784601 0.332861,-1.402771 0.356637,-0.618171 0.974807,-0.974808 0.641946,-0.356636 1.474099,-0.356636 0.784601,0 1.283892,0.309085 0.523068,0.309085 0.784601,0.927255 0.261534,0.594395 0.261534,1.497875 z"
         style="font-style:normal;font-variant:normal;font-weight:normal;font-stretch:normal;font-family:'Jost*';-inkscape-font-specification:'Jost*';stroke-width:0.59439462"
         id="path3887"
         inkscape:connector-curvature="0" />
      <path
         d="m 51.016915,52.518687 q 0,1.236341 0.427965,2.282476 0.427964,1.046134 1.188789,1.806959 0.784601,0.760825 1.80696,1.188789 1.022358,0.427965 2.234923,0.427965 1.212565,0 2.234924,-0.427965 1.022359,-0.427964 1.783184,-1.188789 0.784601,-0.760825 1.212565,-1.806959 0.427964,-1.046135 0.427964,-2.282476 0,-1.236341 -0.427964,-2.282475 -0.427964,-1.046135 -1.212565,-1.80696 -0.760825,-0.760825 -1.783184,-1.188789 -1.022359,-0.427964 -2.234924,-0.427964 -1.212565,0 -2.234923,0.427964 -1.022359,0.427964 -1.80696,1.188789 -0.760825,0.760825 -1.188789,1.80696 -0.427965,1.046134 -0.427965,2.282475 z m 1.925839,0 q 0,-1.141238 0.475516,-2.020942 0.499291,-0.903479 1.331444,-1.402771 0.855928,-0.499291 1.925838,-0.499291 0.808377,0 1.474099,0.285309 0.689498,0.285309 1.188789,0.832152 0.499292,0.523068 0.784601,1.236341 0.28531,0.713274 0.28531,1.569202 0,1.141238 -0.499292,2.020942 -0.475516,0.879704 -1.331444,1.402771 -0.832152,0.499292 -1.902063,0.499292 -0.808376,0 -1.497874,-0.28531 -0.665722,-0.285309 -1.165014,-0.808376 -0.499291,-0.546843 -0.784601,-1.260117 -0.285309,-0.713274 -0.285309,-1.569202 z"
         style="font-style:normal;font-variant:normal;font-weight:normal;font-stretch:normal;font-family:'Jost*';-inkscape-font-specification:'Jost*';stroke-width:0.59439462"
         id="path3889"
         inkscape:connector-curvature="0" />
      <path
         d="m 71.50867,51.329898 v 6.65722 h 1.902063 V 51.09214 q 0,-1.06991 -0.237758,-1.854511 -0.213982,-0.808377 -0.665722,-1.331444 -0.45174,-0.546843 -1.117462,-0.808377 -0.641946,-0.285309 -1.497874,-0.285309 -0.855929,0 -1.521651,0.332861 -0.665722,0.332861 -1.141237,0.951031 -0.475516,0.61817 -0.73705,1.450323 -0.237757,0.808377 -0.237757,1.783184 h 0.61817 q 0,-0.594395 0.16643,-1.093686 0.166431,-0.499292 0.475516,-0.855929 0.332861,-0.380412 0.808377,-0.570618 0.475516,-0.213982 1.093686,-0.213982 0.570619,0 0.974807,0.190206 0.404189,0.16643 0.641946,0.499291 0.261534,0.332861 0.356637,0.855929 0.118879,0.499291 0.118879,1.188789 z m -4.636278,-4.279642 h -1.902063 v 10.936862 h 1.902063 z m 13.076682,4.041884 q 0,-1.06991 -0.237758,-1.854511 -0.213982,-0.808377 -0.665722,-1.331444 -0.45174,-0.546843 -1.117462,-0.808377 -0.641946,-0.285309 -1.497874,-0.285309 -0.855929,0 -1.592978,0.332861 -0.713273,0.332861 -1.260117,0.951031 -0.523067,0.61817 -0.832152,1.450323 -0.309085,0.808377 -0.309085,1.783184 h 0.974807 q 0,-0.594395 0.16643,-1.093686 0.166431,-0.499292 0.475516,-0.855929 0.332861,-0.380412 0.808377,-0.570618 0.475516,-0.213982 1.093686,-0.213982 0.570619,0 0.974807,0.190206 0.404189,0.16643 0.641946,0.499291 0.261534,0.332861 0.356637,0.855929 0.118879,0.499291 0.118879,1.188789 v 6.65722 h 1.902063 z"
         style="font-style:normal;font-variant:normal;font-weight:normal;font-stretch:normal;font-family:'Jost*';-inkscape-font-specification:'Jost*';stroke-width:0.59439462"
         id="path3891"
         inkscape:connector-curvature="0" />
      <path
         d="m 84.35465,54.777387 q 0,-0.665722 0.309085,-1.141238 0.309086,-0.475516 0.927256,-0.737049 0.641946,-0.261534 1.592978,-0.261534 1.046134,0 1.878287,0.285309 0.832152,0.261534 1.640529,0.832153 v -1.117462 q -0.166431,-0.213982 -0.61817,-0.546843 -0.45174,-0.356637 -1.212566,-0.61817 -0.737049,-0.28531 -1.783183,-0.28531 -1.426548,0 -2.472682,0.45174 -1.046135,0.427964 -1.616754,1.236341 -0.570618,0.808377 -0.570618,1.97339 0,1.117462 0.499291,1.878287 0.523067,0.737049 1.378996,1.117462 0.855928,0.380413 1.878287,0.380413 1.141237,0 2.068493,-0.380413 0.927256,-0.404188 1.474099,-1.141238 0.570619,-0.760825 0.570619,-1.806959 l -0.380413,-1.18879 q 0,1.022359 -0.427964,1.64053 -0.404188,0.61817 -1.141238,0.903479 -0.737049,0.28531 -1.688081,0.28531 -0.641946,0 -1.165013,-0.190206 -0.523067,-0.213982 -0.832153,-0.594395 -0.309085,-0.404188 -0.309085,-0.974807 z m 0,-5.159346 q 0.261534,-0.190206 0.713274,-0.45174 0.475515,-0.285309 1.117462,-0.475515 0.641946,-0.213982 1.426547,-0.213982 0.594394,0 1.117462,0.190206 0.523067,0.190206 0.855928,0.570619 0.332861,0.356637 0.332861,0.90348 v 7.846009 h 1.902063 v -7.846009 q 0,-0.784601 -0.309085,-1.402772 -0.309086,-0.61817 -0.879704,-1.046134 -0.546843,-0.427964 -1.331444,-0.641947 -0.760826,-0.237757 -1.688081,-0.237757 -1.474099,0 -2.520233,0.45174 -1.046135,0.451739 -1.664305,0.903479 z"
         style="font-style:normal;font-variant:normal;font-weight:normal;font-stretch:normal;font-family:'Jost*';-inkscape-font-specification:'Jost*';stroke-width:0.59439462"
         id="path3893"
         inkscape:connector-curvature="0" />
      <path
         d="m 95.324207,54.135441 -1.497875,0.927255 q 0.404188,0.879704 1.06991,1.616754 0.689498,0.713273 1.569202,1.141237 0.879704,0.404189 1.878287,0.404189 1.069911,0 1.902059,-0.332861 0.85593,-0.356637 1.35522,-1.093687 0.4993,-0.737049 0.4993,-1.902062 0,-0.927256 -0.42797,-1.545426 -0.42796,-0.618171 -1.11746,-1.046135 -0.689498,-0.427964 -1.474099,-0.737049 -0.45174,-0.190207 -0.927256,-0.356637 -0.475516,-0.166431 -0.879704,-0.356637 -0.404188,-0.213982 -0.665722,-0.499291 -0.237758,-0.28531 -0.237758,-0.665722 0,-0.427964 0.213982,-0.665722 0.237758,-0.261534 0.618171,-0.356637 0.404188,-0.118879 0.879704,-0.118879 0.665722,0 1.331444,0.427964 0.689498,0.404188 1.069908,0.951032 l 1.52165,-0.974808 q -0.33286,-0.61817 -0.92725,-1.093686 -0.5944,-0.475516 -1.378999,-0.760825 -0.760825,-0.285309 -1.640529,-0.285309 -0.879704,0 -1.688081,0.309085 -0.808377,0.309085 -1.331444,0.974807 -0.523067,0.641946 -0.523067,1.664305 0,1.022359 0.475516,1.616753 0.475515,0.594395 1.188789,0.951032 0.737049,0.332861 1.474099,0.641946 0.641946,0.237758 1.188789,0.523067 0.570619,0.28531 0.927255,0.665722 0.356642,0.380413 0.356642,0.951032 0,0.45174 -0.237763,0.760825 -0.237758,0.285309 -0.641946,0.427964 -0.380412,0.142655 -0.90348,0.142655 -0.523067,0 -1.06991,-0.28531 -0.546843,-0.309085 -1.06991,-0.832152 -0.499292,-0.523067 -0.879704,-1.188789 z"
         style="font-style:normal;font-variant:normal;font-weight:normal;font-stretch:normal;font-family:'Jost*';-inkscape-font-specification:'Jost*';stroke-width:0.59439462"
         id="path3895"
         inkscape:connector-curvature="0" />
    </g>
    <g
       aria-label="AZAR"
       style="font-style:normal;font-weight:normal;font-size:29.04281807px;line-height:1.25;font-family:sans-serif;letter-spacing:0px;word-spacing:0px;fill:#000000;fill-opacity:1;stroke:none;stroke-width:0.72607046"
       id="text55">
      <path
         d="m 36.313388,75.382408 h 10.745843 l -0.871285,-2.323426 h -9.003273 z m 5.314836,-9.642216 3.485138,8.190075 0.232343,0.580856 2.962367,6.970277 H 51.06714 L 41.628224,60.134928 32.189308,81.4814 h 2.759068 l 3.020453,-7.144534 0.232343,-0.52277 z"
         style="font-style:normal;font-variant:normal;font-weight:normal;font-stretch:normal;font-family:'Jost*';-inkscape-font-specification:'Jost*';stroke-width:0.72607046"
         id="path3898"
         inkscape:connector-curvature="0" />
      <path
         d="M 52.233391,63.474852 H 62.340292 L 51.652535,81.4814 h 14.23098 v -2.323426 h -10.1069 L 66.464372,61.151427 H 52.233391 Z"
         style="font-style:normal;font-variant:normal;font-weight:normal;font-stretch:normal;font-family:'Jost*';-inkscape-font-specification:'Jost*';stroke-width:0.72607046"
         id="path3900"
         inkscape:connector-curvature="0" />
      <path
         d="M 71.312252,75.382408 H 82.058094 L 81.18681,73.058982 h -9.003274 z m 5.314835,-9.642216 3.485138,8.190075 0.232343,0.580856 2.962367,6.970277 h 2.759068 L 76.627087,60.134928 67.188171,81.4814 h 2.759068 l 3.020453,-7.144534 0.232343,-0.52277 z"
         style="font-style:normal;font-variant:normal;font-weight:normal;font-stretch:normal;font-family:'Jost*';-inkscape-font-specification:'Jost*';stroke-width:0.72607046"
         id="path3902"
         inkscape:connector-curvature="0" />
      <path
         d="M 92.169533,71.461627 99.13981,81.4814 h 3.0495 L 94.928601,71.461627 Z m -3.630352,-10.3102 V 81.4814 H 91.00782 V 61.151427 Z m 1.365012,2.178211 h 4.153123 q 1.306927,0 2.294383,0.464685 1.016499,0.464685 1.568312,1.33597 0.580857,0.871285 0.580857,2.120126 0,1.248841 -0.580857,2.120125 -0.551813,0.871285 -1.568312,1.33597 -0.987456,0.464685 -2.294383,0.464685 h -4.153123 v 2.178211 h 4.153123 q 1.481184,0 2.730025,-0.406599 1.248841,-0.435642 2.178212,-1.219798 0.958413,-0.813199 1.481187,-1.945869 0.52277,-1.13267 0.52277,-2.526725 0,-1.887783 -0.92937,-3.252796 -0.90033,-1.365012 -2.468643,-2.091083 -1.539269,-0.755113 -3.514181,-0.755113 h -4.153123 z"
         style="font-style:normal;font-variant:normal;font-weight:normal;font-stretch:normal;font-family:'Jost*';-inkscape-font-specification:'Jost*';stroke-width:0.72607046"
         id="path3904"
         inkscape:connector-curvature="0" />
    </g>
  </g>
</svg>
