<svg class="logo" title="Barefoot in the Park" version="1.1" viewBox="0 0 70 43.437" xmlns="http://www.w3.org/2000/svg">
 <g stroke-width="3.5961" aria-label="PRIDE">
  <path d="m2.4453 12.083v8.0552h-2.4453v-20.138h5.466c1.2946 0 2.4453 0.25892 3.481 0.74799 1.0357 0.48907 1.8412 1.1795 2.4453 2.0713 0.60414 0.9206 0.9206 1.985 0.9206 3.2221 0 1.2371-0.31646 2.3015-0.9206 3.2221s-1.4097 1.611-2.4453 2.1001-2.1864 0.71922-3.481 0.71922zm0-2.3015h3.0207c1.2946 0 2.359-0.31646 3.1646-0.94937 0.80552-0.63291 1.2371-1.5535 1.2371-2.7906 0-1.2371-0.43153-2.1576-1.2371-2.7906-0.80552-0.63291-1.87-0.94937-3.1646-0.94937h-3.0207z"/>
  <path d="m18.234 12.083v8.0552h-2.4453v-20.138h5.466c1.2946 0 2.4453 0.25892 3.481 0.74799 1.0357 0.48907 1.8412 1.1795 2.4453 2.0713 0.60414 0.9206 0.9206 1.985 0.9206 3.2221 0 1.5247-0.4603 2.7906-1.3521 3.7975-0.89183 1.0069-2.0426 1.6686-3.4522 2.0138l6.0127 8.2854h-3.0207l-5.6099-8.0552zm0-2.1577h3.0207c1.2946 0 2.359-0.31646 3.1646-1.0069s1.2371-1.6398 1.2371-2.8769c0-1.2371-0.43153-2.1864-1.2371-2.8769-0.80552-0.66168-1.87-1.0069-3.1646-1.0069h-3.0207z"/>
  <path d="m31.915-9.5367e-7h2.4453v20.138h-2.4453z"/>
  <path d="m40.291 20.138h-1.3521v-20.138h6.0414c1.9563 0 3.6824 0.43153 5.2071 1.2658 1.496 0.86306 2.7043 2.0426 3.5673 3.5385s1.2946 3.2509 1.2946 5.2647c0 2.0138-0.43153 3.7975-1.2946 5.2934-0.86306 1.496-2.0713 2.6755-3.5673 3.5098-1.5247 0.86306-3.2509 1.2658-5.2071 1.2658h-3.5961zm1.0932-2.4453h3.5961c1.496 0 2.8193-0.28769 3.9701-0.9206 1.1507-0.63291 2.0426-1.496 2.6755-2.6467 0.63291-1.1507 0.97813-2.5029 0.97813-4.0564 0-1.5535-0.34522-2.9056-0.97813-4.0564-0.63291-1.122-1.5247-1.985-2.6755-2.6179-1.1507-0.63291-2.4741-0.94937-3.9701-0.94937h-3.5961z"/>
  <path d="m60.938 10.357v7.4799h9.0621v2.3015h-11.507v-20.138h11.507v2.3015h-9.0621v5.7537h8.4868v2.3015z"/>
 </g>
 <g stroke-width="1.9287" aria-label="PREJUDICE">
  <path d="m1.3115 35.722v4.3203h-1.3115v-10.801h2.9316c0.69433 0 1.3115 0.13887 1.867 0.40117 0.55547 0.2623 0.9875 0.63262 1.3115 1.1109 0.32402 0.49375 0.49375 1.0646 0.49375 1.7281 0 0.66348-0.16973 1.2344-0.49375 1.7281-0.32402 0.49375-0.75605 0.86406-1.3115 1.1264-0.55547 0.2623-1.1727 0.38574-1.867 0.38574zm0-1.2344h1.6201c0.69433 0 1.2652-0.16973 1.6973-0.50918 0.43203-0.33945 0.66348-0.8332 0.66348-1.4967 0-0.66348-0.23144-1.1572-0.66348-1.4967-0.43203-0.33945-1.0029-0.50918-1.6973-0.50918h-1.6201z"/>
  <path d="m9.7798 35.722v4.3203h-1.3115v-10.801h2.9316c0.69433 0 1.3115 0.13887 1.867 0.40117 0.55547 0.2623 0.9875 0.63262 1.3115 1.1109 0.32402 0.49375 0.49375 1.0646 0.49375 1.7281 0 0.81777-0.24687 1.4967-0.72519 2.0367-0.47832 0.54004-1.0955 0.89492-1.8516 1.0801l3.2248 4.4437h-1.6201l-3.0088-4.3203zm0-1.1572h1.6201c0.69433 0 1.2652-0.16973 1.6973-0.54004 0.43203-0.37031 0.66348-0.87949 0.66348-1.543 0-0.66348-0.23144-1.1727-0.66348-1.543-0.43203-0.35488-1.0029-0.54004-1.6973-0.54004h-1.6201z"/>
  <path d="m18.429 34.796v4.0117h4.8603v1.2344h-6.1719v-10.801h6.1719v1.2344h-4.8603v3.0859h4.5517v1.2344z"/>
  <path d="m23.347 41.647c0.21602 0.37031 0.63262 0.55547 1.2189 0.55547 0.23144 0 0.46289-0.09258 0.69434-0.30859 0.23144-0.21602 0.35488-0.5709 0.35488-1.0801v-11.572h1.2344v11.727c0 0.84863-0.21602 1.4658-0.63262 1.867-0.43203 0.40117-1.0029 0.60176-1.7281 0.60176-0.4166 0-0.80234-0.07715-1.1418-0.2623-0.33945-0.18516-0.5709-0.35488-0.6789-0.50918z"/>
  <path d="m29.245 29.241h1.3115v7.2519c0 0.74062 0.20058 1.3424 0.60176 1.7898 0.40117 0.46289 0.9875 0.6789 1.759 0.6789s1.3578-0.21602 1.759-0.6789c0.40117-0.44746 0.60176-1.0492 0.60176-1.7898v-7.2519h1.3115v7.2519c0 0.70976-0.1543 1.3578-0.46289 1.9133-0.30859 0.55547-0.72519 1.0029-1.2652 1.3115-0.55547 0.32402-1.2035 0.47832-1.9441 0.47832s-1.3887-0.1543-1.9441-0.47832c-0.55547-0.30859-0.97207-0.75605-1.2807-1.3115-0.30859-0.55547-0.44746-1.2035-0.44746-1.9133z"/>
  <path d="m39.721 40.042h-0.72519v-10.801h3.2402c1.0492 0 1.975 0.23144 2.7928 0.6789 0.80234 0.46289 1.4504 1.0955 1.9133 1.8978 0.46289 0.80234 0.69434 1.7436 0.69434 2.8236s-0.23144 2.0367-0.69434 2.8391c-0.46289 0.80234-1.1109 1.435-1.9133 1.8824-0.81777 0.46289-1.7436 0.6789-2.7928 0.6789h-1.9287zm0.58633-1.3115h1.9287c0.80234 0 1.5121-0.1543 2.1293-0.49375 0.61719-0.33945 1.0955-0.80234 1.435-1.4195 0.33945-0.61719 0.52461-1.3424 0.52461-2.1756s-0.18516-1.5584-0.52461-2.1756c-0.33945-0.60176-0.81777-1.0646-1.435-1.4041-0.61719-0.33945-1.327-0.50918-2.1293-0.50918h-1.9287z"/>
  <path d="m49.483 29.241h1.3115v10.801h-1.3115z"/>
  <path d="m54.022 34.642c0 0.8332 0.18516 1.5738 0.55547 2.2064 0.37031 0.64804 0.86406 1.1418 1.4812 1.4967 0.60176 0.37031 1.2652 0.54004 1.975 0.54004 0.75605 0 1.435-0.13887 2.0213-0.44746 0.58633-0.29316 1.0646-0.6789 1.4504-1.1572v1.7281c-0.46289 0.40117-0.95664 0.70976-1.4812 0.89492-0.54004 0.20059-1.2035 0.29316-1.9904 0.29316-0.75605 0-1.4658-0.12344-2.1139-0.40117-0.64804-0.27773-1.2189-0.66348-1.7127-1.1572-0.49375-0.49375-0.87949-1.0955-1.1572-1.7744-0.27773-0.6789-0.4166-1.4195-0.4166-2.2219s0.13887-1.543 0.4166-2.2219c0.27773-0.6789 0.66348-1.2652 1.1572-1.759s1.0646-0.87949 1.7127-1.1572c0.64805-0.27773 1.3578-0.4166 2.1139-0.4166 0.78691 0 1.4504 0.10801 1.9904 0.29316 0.52461 0.20059 1.0184 0.49375 1.4812 0.89492v1.7281c-0.38574-0.47832-0.86406-0.86406-1.4504-1.1572-0.58633-0.29316-1.2652-0.44746-2.0213-0.44746-0.70976 0-1.3732 0.18516-1.975 0.54004-0.61719 0.37031-1.1109 0.86406-1.4812 1.4967-0.37031 0.63262-0.55547 1.3732-0.55547 2.2064z"/>
  <path d="m65.14 34.796v4.0117h4.8603v1.2344h-6.1719v-10.801h6.1719v1.2344h-4.8603v3.0859h4.5517v1.2344z"/>
 </g>
 <g transform="translate(0 -.276)">
  <g aria-label="&amp;">
   <path d="m34.416 24.237c0.24-0.152 0.424-0.312 0.56-0.48 0.136-0.16 0.208-0.328 0.208-0.496 0-0.2-0.064-0.368-0.184-0.496-0.128-0.128-0.296-0.192-0.512-0.192-0.224 0-0.392 0.064-0.512 0.184-0.128 0.128-0.184 0.288-0.184 0.488 0 0.176 0.064 0.344 0.2 0.504 0.128 0.16 0.272 0.32 0.424 0.488zm2.112 2.424 0.896 1.032h-0.768l-0.552-0.632c-0.256 0.216-0.536 0.392-0.832 0.52s-0.616 0.192-0.968 0.192c-0.304 0-0.6-0.056-0.872-0.184s-0.496-0.304-0.672-0.536-0.256-0.504-0.256-0.824c0-0.24 0.04-0.448 0.128-0.632 0.088-0.176 0.2-0.336 0.344-0.472 0.136-0.128 0.288-0.248 0.448-0.344s0.312-0.176 0.456-0.256c-0.096-0.096-0.208-0.216-0.32-0.344-0.12-0.128-0.224-0.264-0.312-0.424-0.088-0.152-0.128-0.32-0.128-0.512 0-0.376 0.128-0.68 0.384-0.904s0.584-0.336 0.984-0.336c0.28 0 0.52 0.064 0.72 0.176 0.2 0.12 0.352 0.272 0.464 0.464 0.104 0.192 0.16 0.392 0.16 0.616 0 0.256-0.096 0.496-0.28 0.728s-0.44 0.456-0.768 0.664l1.352 1.56c0.152-0.152 0.304-0.32 0.448-0.496s0.28-0.36 0.416-0.552l0.496 0.312c-0.152 0.208-0.312 0.408-0.472 0.608-0.16 0.208-0.328 0.4-0.496 0.576zm-0.816-0.048-1.456-1.664c-0.176 0.096-0.344 0.192-0.504 0.304-0.168 0.112-0.304 0.248-0.408 0.392-0.112 0.152-0.16 0.336-0.16 0.544 0 0.304 0.112 0.552 0.336 0.728s0.504 0.264 0.824 0.264c0.24 0 0.48-0.048 0.704-0.152s0.448-0.24 0.664-0.416z" style=""/>
  </g>
  <path d="m4.5272 24.607h25v0.501h-25z" stroke-width=".65892"/>
  <path d="m40.473 24.362h25v0.501h-25z" stroke-width=".65892"/>
 </g>
</svg>
