<?xml version="1.0" encoding="UTF-8"?>
<svg version="1.1" viewBox="0 0 70 38.09" xmlns="http://www.w3.org/2000/svg"><g transform="translate(0 -258.91)"><g stroke-width=".35037" aria-label="ANGELS IN"><path d="m2.5787 266.27-1.2473 2.9431h-1.3314l4.5548-10.301 4.5548 10.301h-1.3314l-1.2473-2.9431zm0.47651-1.1212h2.9992l-1.4996-3.5318z"/><path d="m17.731 259.4h1.1913v10.301l-7.4279-7.7923v7.3018h-1.1913v-10.301l7.4279 7.7923z"/><path d="m25.725 265.36v-1.1212h4.5548c0 0.68673-0.11212 1.3314-0.30833 1.9481-0.21022 0.61666-0.51855 1.1492-0.91097 1.6257-0.40643 0.47651-0.89695 0.85491-1.4856 1.1352-0.58863 0.28029-1.2473 0.40643-1.9901 0.40643-0.71476 0-1.3735-0.11212-1.9761-0.36439-0.61666-0.25227-1.1352-0.60264-1.5837-1.0511-0.44848-0.44847-0.79885-0.99505-1.0511-1.6117-0.25227-0.61665-0.36439-1.2894-0.36439-2.0181 0-0.72878 0.11212-1.4015 0.36439-2.0182 0.25227-0.61665 0.60264-1.1492 1.0511-1.5977 0.44848-0.44848 0.96703-0.79885 1.5837-1.0511 0.60264-0.25227 1.2613-0.3784 1.9761-0.3784 0.89695 0 1.6958 0.18219 2.3965 0.53256 0.70074 0.36439 1.2613 0.88294 1.6818 1.5557l-0.84089 0.77082c-0.30833-0.51856-0.74279-0.92499-1.2894-1.2193-0.5606-0.29431-1.2053-0.44848-1.9481-0.44848-0.70074 0-1.3174 0.16818-1.878 0.49052-0.5606 0.33636-1.0091 0.78484-1.3454 1.3594-0.33636 0.57461-0.49052 1.2473-0.49052 2.0041 0 0.7568 0.15416 1.4295 0.49052 2.0041 0.33636 0.58862 0.78483 1.0371 1.3454 1.3594 0.5606 0.33636 1.1773 0.49052 1.878 0.49052 0.64468 0 1.2053-0.12613 1.6818-0.3784 0.46249-0.25227 0.84089-0.60264 1.1352-1.0231 0.2803-0.42044 0.47651-0.89695 0.58863-1.4015z"/><path d="m33.228 264.45v3.6439h4.4147v1.1212h-5.606v-9.8104h5.606v1.1212h-4.4147v2.803h4.1344v1.1212z"/><path d="m39.756 259.4h1.1913v8.6892h3.8541v1.1212h-5.0454z"/><path d="m46.501 266.04c0.29431 0.67272 0.64468 1.2053 1.0511 1.5977 0.39242 0.39242 0.89695 0.58863 1.5136 0.58863 0.5606 0 0.98104-0.14015 1.2613-0.42045s0.42045-0.67271 0.42045-1.1632c0-0.42044-0.12613-0.7568-0.35037-1.0371-0.22424-0.26628-0.51855-0.49052-0.86892-0.67271-0.35037-0.16818-0.71476-0.32234-1.0791-0.46249-0.25227-0.0841-0.51855-0.1822-0.79885-0.30833s-0.54658-0.29431-0.79885-0.49052-0.46249-0.44848-0.63067-0.75681c-0.16818-0.30832-0.23825-0.68673-0.23825-1.1352 0-0.49052 0.11212-0.92499 0.35037-1.3034 0.22424-0.3784 0.5606-0.67271 0.98104-0.89695 0.42045-0.21022 0.92498-0.32234 1.5136-0.32234 0.53256 0 0.98104 0.0981 1.3735 0.29431s0.71476 0.44848 0.99506 0.7568c0.26628 0.32235 0.49052 0.67272 0.6587 1.0511l-0.96703 0.64469c-0.14015-0.26629-0.32234-0.51856-0.51855-0.77082-0.19621-0.25227-0.43446-0.44848-0.71476-0.60264-0.2803-0.15417-0.58862-0.23826-0.95301-0.23826-0.49052 0-0.85491 0.12614-1.1072 0.37841-0.25227 0.25226-0.36439 0.60264-0.36439 1.0231 0 0.32235 0.0981 0.58863 0.32234 0.81287 0.21022 0.22423 0.49052 0.40643 0.84089 0.57461 0.33636 0.16818 0.71476 0.33635 1.1072 0.4765 0.25227 0.0981 0.51855 0.22424 0.81286 0.36439 0.2803 0.15416 0.5606 0.33636 0.81286 0.5606 0.25227 0.22423 0.44848 0.49052 0.61666 0.81286 0.15416 0.32234 0.23825 0.70074 0.23825 1.1492 0 0.5606-0.12613 1.0511-0.3784 1.4716-0.25227 0.42045-0.58862 0.75681-1.0371 0.98105-0.44848 0.23825-0.96703 0.35037-1.5697 0.35037-0.81286 0-1.5136-0.23825-2.1303-0.74279s-1.0651-1.1492-1.3735-1.9621z"/><path d="m57.959 259.4h1.1913v9.8104h-1.1913z"/><path d="m68.809 259.4h1.1913v10.301l-7.4279-7.7923v7.3018h-1.1913v-10.301l7.4279 7.7923z"/></g><g stroke-width=".42208" aria-label="AMERICA"><path d="m3.1065 280.56-1.5026 3.5455h-1.6039l5.4871-12.409 5.4871 12.409h-1.6039l-1.5026-3.5455zm0.57403-1.3507h3.613l-1.8065-4.2546z"/><path d="m14.05 276.12-0.87794 7.9858h-1.4351l1.4351-12.409 4.7273 8.5599 4.7273-8.5599 1.4351 12.409h-1.4351l-0.87794-7.9858-3.8494 6.8884z"/><path d="m27.532 278.37v4.3897h5.3183v1.3507h-6.7533v-11.818h6.7533v1.3507h-5.3183v3.3767h4.9806v1.3507z"/><path d="m36.831 279.38v4.7273h-1.4351v-11.818h3.2078c0.75975 0 1.4351 0.15195 2.0429 0.43896 0.6078 0.28702 1.0805 0.69222 1.4351 1.2156 0.35455 0.54027 0.54027 1.165 0.54027 1.8909 0 0.89482-0.27013 1.6377-0.79352 2.2286-0.52338 0.59092-1.1987 0.97924-2.026 1.1818l3.5286 4.8624h-1.7728l-3.2923-4.7273zm0-1.2662h1.7728c0.75975 0 1.3844-0.18572 1.8572-0.59092 0.47274-0.4052 0.72598-0.96235 0.72598-1.6883 0-0.72598-0.25325-1.2831-0.72598-1.6883-0.47273-0.38831-1.0974-0.59091-1.8572-0.59091h-1.7728z"/><path d="m44.86 272.29h1.4351v11.818h-1.4351z"/><path d="m49.826 278.2c0 0.9117 0.2026 1.7221 0.6078 2.4143 0.4052 0.7091 0.94547 1.2494 1.6208 1.6377 0.65845 0.4052 1.3844 0.59092 2.1611 0.59092 0.82728 0 1.5702-0.15195 2.2117-0.48962 0.64157-0.32079 1.165-0.74287 1.587-1.2662v1.8909c-0.5065 0.43897-1.0468 0.77664-1.6208 0.97924-0.59092 0.21948-1.3169 0.32078-2.178 0.32078-0.82728 0-1.6039-0.13506-2.313-0.43897-0.7091-0.3039-1.3338-0.72598-1.8741-1.2662s-0.96235-1.1987-1.2663-1.9416c-0.3039-0.74287-0.45585-1.5533-0.45585-2.4312 0-0.87793 0.15195-1.6883 0.45585-2.4312 0.3039-0.74287 0.72598-1.3844 1.2663-1.9247 0.54027-0.54026 1.165-0.96235 1.8741-1.2662s1.4857-0.45585 2.313-0.45585c0.86105 0 1.587 0.11819 2.178 0.32079 0.57404 0.21948 1.1143 0.54026 1.6208 0.97923v1.8909c-0.42208-0.52339-0.94547-0.94547-1.587-1.2663-0.64157-0.32078-1.3844-0.48961-2.2117-0.48961-0.77664 0-1.5026 0.2026-2.1611 0.59091-0.67533 0.40521-1.2156 0.94547-1.6208 1.6377-0.4052 0.69222-0.6078 1.5026-0.6078 2.4143z"/><path d="m62.132 280.56-1.5026 3.5455h-1.6039l5.4871-12.409 5.4871 12.409h-1.6039l-1.5026-3.5455zm0.57403-1.3507h3.613l-1.8065-4.2546z"/></g><g stroke-width=".35976" aria-label="PARTS I &amp; II"><path d="m1.2232 292.83v4.0294h-1.2232v-10.073h2.7342c0.64758 0 1.2232 0.12952 1.7413 0.37416s0.921 0.59001 1.2232 1.0361c0.3022 0.46049 0.4605 0.99295 0.4605 1.6117s-0.1583 1.1512-0.4605 1.6117c-0.3022 0.4605-0.70514 0.80588-1.2232 1.0505s-1.0937 0.35976-1.7413 0.35976zm0-1.1512h1.511c0.64758 0 1.18-0.15829 1.583-0.47488 0.40294-0.3166 0.61879-0.7771 0.61879-1.3959s-0.21586-1.0793-0.61879-1.3959c-0.40294-0.3166-0.93539-0.47489-1.583-0.47489h-1.511z"/><path d="m8.4547 293.83-1.2808 3.022h-1.3671l4.6769-10.577 4.6769 10.577h-1.3671l-1.2808-3.022zm0.48928-1.1512h3.0796l-1.5398-3.6264z"/><path d="m17.609 292.83v4.0294h-1.2232v-10.073h2.7342c0.64758 0 1.2232 0.12952 1.7413 0.37416s0.921 0.59001 1.2232 1.0361c0.3022 0.46049 0.4605 0.99295 0.4605 1.6117 0 0.7627-0.23025 1.3959-0.67636 1.8996-0.44611 0.50367-1.0217 0.83465-1.7269 1.0073l3.0076 4.1445h-1.511l-2.8062-4.0294zm0-1.0793h1.511c0.64758 0 1.18-0.1583 1.583-0.50367 0.40294-0.34538 0.61879-0.82027 0.61879-1.4391s-0.21586-1.0937-0.61879-1.4391c-0.40294-0.33098-0.93539-0.50367-1.583-0.50367h-1.511z"/><path d="m23.445 287.93v-1.1512h6.4038v1.1512h-2.5903v8.9222h-1.2232v-8.9222z"/><path d="m31.603 293.6c0.3022 0.69075 0.66197 1.2376 1.0793 1.6405 0.40294 0.40293 0.921 0.6044 1.5542 0.6044 0.57562 0 1.0073-0.14391 1.2952-0.43172 0.28781-0.28781 0.43172-0.69075 0.43172-1.1944 0-0.43172-0.12952-0.7771-0.35976-1.0649-0.23025-0.27342-0.53245-0.50367-0.89222-0.69074-0.35976-0.17269-0.73392-0.33099-1.1081-0.47489-0.25903-0.0864-0.53245-0.18708-0.82026-0.3166-0.28781-0.12951-0.56123-0.3022-0.82026-0.50367-0.25903-0.20146-0.47489-0.46049-0.64758-0.77709-0.17269-0.31659-0.24464-0.70513-0.24464-1.1656 0-0.50367 0.11512-0.94978 0.35976-1.3383 0.23025-0.38854 0.57562-0.69074 1.0073-0.92099 0.43172-0.21586 0.94978-0.33098 1.5542-0.33098 0.54684 0 1.0073 0.10073 1.4103 0.3022s0.73392 0.4605 1.0217 0.77709c0.27342 0.33098 0.50367 0.69075 0.67636 1.0793l-0.99295 0.66197c-0.14391-0.27342-0.33098-0.53245-0.53245-0.79148s-0.44611-0.4605-0.73392-0.6188-0.6044-0.24464-0.97856-0.24464c-0.50367 0-0.87782 0.12952-1.1369 0.38855-0.25903 0.25903-0.37415 0.61879-0.37415 1.0505 0 0.33098 0.10073 0.6044 0.33098 0.83465 0.21586 0.23025 0.50367 0.41733 0.86343 0.59001 0.34537 0.17269 0.73392 0.34538 1.1369 0.48928 0.25903 0.10074 0.53245 0.23025 0.83465 0.37416 0.28781 0.15829 0.57562 0.34537 0.83465 0.57562s0.4605 0.50367 0.63318 0.83465c0.1583 0.33099 0.24464 0.71953 0.24464 1.18 0 0.57562-0.12952 1.0793-0.38854 1.511s-0.6044 0.77709-1.0649 1.0073c-0.4605 0.24464-0.99295 0.35976-1.6117 0.35976-0.83465 0-1.5542-0.24463-2.1874-0.7627-0.63318-0.51806-1.0937-1.18-1.4103-2.0147z"/><path d="m43.368 286.78h1.2232v10.073h-1.2232z"/><path d="m54.074 290.64c0.43172-0.27342 0.7627-0.56123 1.0073-0.86343 0.24464-0.28781 0.37416-0.59001 0.37416-0.89222 0-0.35976-0.11512-0.66196-0.33098-0.89221-0.23025-0.23025-0.53245-0.34537-0.921-0.34537-0.40294 0-0.70514 0.11512-0.921 0.33098-0.23025 0.23025-0.33098 0.51806-0.33098 0.87782 0 0.3166 0.11512 0.6188 0.35976 0.90661 0.23025 0.28781 0.48928 0.57562 0.7627 0.87782zm3.7991 4.3604 1.6117 1.8564h-1.3815l-0.99295-1.1369c-0.4605 0.38855-0.96417 0.70514-1.4966 0.93539s-1.1081 0.34537-1.7413 0.34537c-0.54684 0-1.0793-0.10073-1.5686-0.33098s-0.89222-0.54684-1.2088-0.96417c-0.31659-0.41732-0.4605-0.9066-0.4605-1.4822 0-0.43172 0.07195-0.80588 0.23025-1.1369 0.1583-0.31659 0.35976-0.6044 0.6188-0.84904 0.24464-0.23025 0.51806-0.44611 0.80587-0.6188 0.28781-0.17268 0.56123-0.31659 0.82026-0.4605-0.17269-0.17268-0.37416-0.38854-0.57562-0.61879-0.21586-0.23025-0.40294-0.47489-0.56123-0.7627-0.1583-0.27342-0.23025-0.57562-0.23025-0.921 0-0.67635 0.23025-1.2232 0.69075-1.6261 0.4605-0.40294 1.0505-0.60441 1.77-0.60441 0.50367 0 0.93539 0.11513 1.2952 0.3166 0.35976 0.21586 0.63318 0.48928 0.83465 0.83465 0.18708 0.34537 0.28781 0.70514 0.28781 1.1081 0 0.4605-0.17269 0.89222-0.50367 1.3096-0.33098 0.41732-0.79148 0.82026-1.3815 1.1944l2.432 2.8062c0.27342-0.27342 0.54684-0.57562 0.80587-0.89221s0.50367-0.64758 0.74831-0.99295l0.89222 0.56123c-0.27342 0.37416-0.56123 0.73392-0.84904 1.0937-0.28781 0.37416-0.59001 0.71953-0.89222 1.0361zm-1.4678-0.0864-2.6191-2.9932c-0.31659 0.17269-0.6188 0.34538-0.90661 0.54685-0.3022 0.20146-0.54684 0.4461-0.73392 0.70513-0.20147 0.27342-0.28781 0.60441-0.28781 0.97856 0 0.54684 0.20147 0.99295 0.6044 1.3095 0.40294 0.3166 0.90661 0.47489 1.4822 0.47489 0.43172 0 0.86343-0.0863 1.2664-0.27342 0.40294-0.18708 0.80587-0.43172 1.1944-0.74831z"/><path d="m65.263 286.78h1.2232v10.073h-1.2232z"/><path d="m68.777 286.78h1.2232v10.073h-1.2232z"/></g></g></svg>
