<?xml version="1.0" encoding="UTF-8" standalone="no"?>
<!-- Created with Inkscape (http://www.inkscape.org/) -->

<svg
   xmlns:dc="http://purl.org/dc/elements/1.1/"
   xmlns:cc="http://creativecommons.org/ns#"
   xmlns:rdf="http://www.w3.org/1999/02/22-rdf-syntax-ns#"
   xmlns:svg="http://www.w3.org/2000/svg"
   xmlns="http://www.w3.org/2000/svg"
   xmlns:sodipodi="http://sodipodi.sourceforge.net/DTD/sodipodi-0.dtd"
   xmlns:inkscape="http://www.inkscape.org/namespaces/inkscape"
   width="70.000008mm"
   height="37.53017mm"
   viewBox="0 0 70.000008 37.53017"
   version="1.1"
   id="svg4533"
   inkscape:version="0.92.4 (33fec40, 2019-01-16)"
   sodipodi:docname="logo.svg">
  <defs
     id="defs4527" />
  <sodipodi:namedview
     id="base"
     pagecolor="#ffffff"
     bordercolor="#666666"
     borderopacity="1.0"
     inkscape:pageopacity="0.0"
     inkscape:pageshadow="2"
     inkscape:zoom="1.4"
     inkscape:cx="47.921355"
     inkscape:cy="103.98848"
     inkscape:document-units="mm"
     inkscape:current-layer="layer1"
     showgrid="false"
     fit-margin-top="0"
     fit-margin-left="0"
     fit-margin-right="0"
     fit-margin-bottom="0"
     inkscape:window-width="1853"
     inkscape:window-height="1016"
     inkscape:window-x="67"
     inkscape:window-y="27"
     inkscape:window-maximized="1" />
  <metadata
     id="metadata4530">
    <rdf:RDF>
      <cc:Work
         rdf:about="">
        <dc:format>image/svg+xml</dc:format>
        <dc:type
           rdf:resource="http://purl.org/dc/dcmitype/StillImage" />
        <dc:title></dc:title>
      </cc:Work>
    </rdf:RDF>
  </metadata>
  <g
     inkscape:label="Layer 1"
     inkscape:groupmode="layer"
     id="layer1"
     transform="translate(2.3841858e-8,-259.46984)">
    <g
       aria-label="GLASS"
       style="font-style:normal;font-variant:normal;font-weight:normal;font-stretch:normal;font-size:23.9243412px;line-height:1.25;font-family:'Jost*';-inkscape-font-specification:'Jost*';letter-spacing:0px;word-spacing:0px;fill:#000000;fill-opacity:1;stroke:none;stroke-width:0.59810853"
       id="text5080">
      <path
         d="m 8.7323845,278.08456 v -1.91394 h 7.7754105 c 0,1.17229 -0.191394,2.27281 -0.526335,3.32548 -0.358865,1.05267 -0.885201,1.9618 -1.555082,2.77522 -0.693806,0.81343 -1.531158,1.45939 -2.53598,1.93787 -1.004823,0.47849 -2.1292668,0.69381 -3.3972569,0.69381 -1.2201414,0 -2.3445854,-0.19139 -3.3733321,-0.62203 C 4.067138,283.85033 3.1819374,283.25222 2.4163584,282.48664 1.6507795,281.72106 1.052671,280.78801 0.62203285,279.73534 0.19139471,278.68267 -2.3841858e-8,277.5343 -2.3841858e-8,276.29024 -2.3841858e-8,275.04617 0.19139471,273.8978 0.62203285,272.84513 1.052671,271.79246 1.6507795,270.88334 2.4163584,270.11776 c 0.765579,-0.76558 1.6507796,-1.36369 2.7034506,-1.79433 1.0287467,-0.43064 2.1531907,-0.64595 3.3733321,-0.64595 1.5311579,0 2.8948449,0.31101 4.0910619,0.90912 1.196218,0.62203 2.153191,1.50723 2.870921,2.6556 l -1.43546,1.31584 c -0.526336,-0.8852 -1.26799,-1.57901 -2.201039,-2.08142 -0.956974,-0.50241 -2.0574938,-0.76558 -3.3254839,-0.76558 -1.1962171,0 -2.2488881,0.2871 -3.2058617,0.83736 -0.9569737,0.57418 -1.7225526,1.33976 -2.2967368,2.32066 -0.5741842,0.9809 -0.8373519,2.12926 -0.8373519,3.42118 0,1.29191 0.2631677,2.44028 0.8373519,3.42118 0.5741842,1.00482 1.3397631,1.7704 2.2967368,2.32066 0.9569736,0.57418 2.0096446,0.83735 3.2058617,0.83735 1.1005197,0 2.0574929,-0.21532 2.8709209,-0.64596 0.789503,-0.43063 1.435461,-1.02874 1.937872,-1.74647 0.478487,-0.71773 0.813427,-1.53116 1.004822,-2.39244 z"
         style="font-style:normal;font-variant:normal;font-weight:normal;font-stretch:normal;font-family:'Jost*';-inkscape-font-specification:'Jost*';stroke-width:0.59810853"
         id="path5140" />
      <path
         d="m 19.507684,267.91672 h 2.033569 v 14.83309 h 6.579194 v 1.91395 h -8.612763 z"
         style="font-style:normal;font-variant:normal;font-weight:normal;font-stretch:normal;font-family:'Jost*';-inkscape-font-specification:'Jost*';stroke-width:0.59810853"
         id="path5142" />
      <path
         d="m 33.563609,279.63965 -2.129266,5.02411 H 29.16153 l 7.775411,-17.58439 7.775411,17.58439 H 42.43954 l -2.129267,-5.02411 z m 0.813428,-1.91395 h 5.119809 l -2.559905,-6.02894 z"
         style="font-style:normal;font-variant:normal;font-weight:normal;font-stretch:normal;font-family:'Jost*';-inkscape-font-specification:'Jost*';stroke-width:0.59810853"
         id="path5144" />
      <path
         d="m 47.515239,279.25686 c 0.502411,1.14836 1.10052,2.05749 1.794326,2.72737 0.669881,0.66988 1.531157,1.00482 2.583828,1.00482 0.956974,0 1.674704,-0.23924 2.153191,-0.71773 0.478487,-0.47848 0.71773,-1.14837 0.71773,-1.98572 0,-0.71773 -0.215319,-1.29191 -0.598108,-1.7704 -0.38279,-0.45456 -0.885201,-0.83735 -1.483309,-1.14837 -0.598109,-0.28709 -1.220142,-0.55026 -1.842175,-0.7895 -0.430638,-0.14355 -0.8852,-0.31102 -1.363687,-0.52634 -0.478487,-0.21531 -0.933049,-0.50241 -1.363687,-0.83735 -0.430639,-0.33494 -0.789504,-0.76558 -1.076596,-1.29191 -0.287092,-0.52634 -0.406714,-1.17229 -0.406714,-1.93787 0,-0.83736 0.191395,-1.57901 0.598109,-2.22497 0.382789,-0.64595 0.956974,-1.14837 1.674704,-1.53116 0.71773,-0.35886 1.579006,-0.55025 2.583829,-0.55025 0.909125,0 1.674704,0.16747 2.344585,0.50241 0.669882,0.33494 1.220141,0.76558 1.698628,1.29191 0.454563,0.55026 0.837352,1.14837 1.124444,1.79433 l -1.650779,1.10052 c -0.239244,-0.45457 -0.55026,-0.8852 -0.885201,-1.31584 -0.334941,-0.43064 -0.741654,-0.76558 -1.220141,-1.02875 -0.478487,-0.26317 -1.004823,-0.40671 -1.626855,-0.40671 -0.837352,0 -1.459385,0.21532 -1.890023,0.64595 -0.430639,0.43064 -0.622033,1.02875 -0.622033,1.74648 0,0.55026 0.16747,1.00482 0.55026,1.38761 0.358865,0.38279 0.837352,0.69381 1.43546,0.9809 0.574184,0.28709 1.220141,0.57418 1.890023,0.81343 0.430638,0.16747 0.885201,0.38279 1.387612,0.62203 0.478487,0.26317 0.956973,0.57419 1.387612,0.95697 0.430638,0.38279 0.765579,0.83736 1.052671,1.38762 0.263167,0.55026 0.406713,1.19621 0.406713,1.96179 0,0.95698 -0.215319,1.79433 -0.645957,2.51206 -0.430638,0.71773 -1.004822,1.29191 -1.770401,1.6747 -0.765579,0.40672 -1.65078,0.59811 -2.679526,0.59811 -1.387612,0 -2.583829,-0.40671 -3.6365,-1.26799 -1.052671,-0.86128 -1.81825,-1.9618 -2.344586,-3.34941 z"
         style="font-style:normal;font-variant:normal;font-weight:normal;font-stretch:normal;font-family:'Jost*';-inkscape-font-specification:'Jost*';stroke-width:0.59810853"
         id="path5146" />
      <path
         d="m 60.645587,279.25686 c 0.502411,1.14836 1.10052,2.05749 1.794326,2.72737 0.669881,0.66988 1.531158,1.00482 2.583829,1.00482 0.956973,0 1.674704,-0.23924 2.15319,-0.71773 0.478487,-0.47848 0.717731,-1.14837 0.717731,-1.98572 0,-0.71773 -0.215319,-1.29191 -0.598109,-1.7704 -0.382789,-0.45456 -0.885201,-0.83735 -1.483309,-1.14837 -0.598109,-0.28709 -1.220141,-0.55026 -1.842174,-0.7895 -0.430639,-0.14355 -0.885201,-0.31102 -1.363688,-0.52634 -0.478487,-0.21531 -0.933049,-0.50241 -1.363687,-0.83735 -0.430638,-0.33494 -0.789504,-0.76558 -1.076596,-1.29191 -0.287092,-0.52634 -0.406713,-1.17229 -0.406713,-1.93787 0,-0.83736 0.191394,-1.57901 0.598108,-2.22497 0.38279,-0.64595 0.956974,-1.14837 1.674704,-1.53116 0.71773,-0.35886 1.579007,-0.55025 2.583829,-0.55025 0.909125,0 1.674704,0.16747 2.344585,0.50241 0.669882,0.33494 1.220142,0.76558 1.698629,1.29191 0.454562,0.55026 0.837351,1.14837 1.124444,1.79433 l -1.65078,1.10052 c -0.239243,-0.45457 -0.55026,-0.8852 -0.885201,-1.31584 -0.33494,-0.43064 -0.741654,-0.76558 -1.220141,-1.02875 -0.478487,-0.26317 -1.004822,-0.40671 -1.626855,-0.40671 -0.837352,0 -1.459385,0.21532 -1.890023,0.64595 -0.430638,0.43064 -0.622033,1.02875 -0.622033,1.74648 0,0.55026 0.16747,1.00482 0.55026,1.38761 0.358865,0.38279 0.837352,0.69381 1.43546,0.9809 0.574184,0.28709 1.220142,0.57418 1.890023,0.81343 0.430638,0.16747 0.885201,0.38279 1.387612,0.62203 0.478487,0.26317 0.956974,0.57419 1.387612,0.95697 0.430638,0.38279 0.765579,0.83736 1.052671,1.38762 0.263168,0.55026 0.406714,1.19621 0.406714,1.96179 0,0.95698 -0.215319,1.79433 -0.645958,2.51206 -0.430638,0.71773 -1.004822,1.29191 -1.770401,1.6747 -0.765579,0.40672 -1.650779,0.59811 -2.679526,0.59811 -1.387612,0 -2.583829,-0.40671 -3.6365,-1.26799 -1.052671,-0.86128 -1.81825,-1.9618 -2.344585,-3.34941 z"
         style="font-style:normal;font-variant:normal;font-weight:normal;font-stretch:normal;font-family:'Jost*';-inkscape-font-specification:'Jost*';stroke-width:0.59810853"
         id="path5148" />
    </g>
    <g
       aria-label="MENAGERIE"
       style="font-style:normal;font-variant:normal;font-weight:normal;font-stretch:normal;font-size:13.11245155px;line-height:1.25;font-family:'Jost*';-inkscape-font-specification:'Jost*';letter-spacing:0px;word-spacing:0px;fill:#000000;fill-opacity:1;stroke:none;stroke-width:0.32781127"
       id="text5084">
      <path
         d="m 1.7964059,290.33889 -0.6818475,6.20219 H 1.66893e-8 L 1.1145584,286.90342 l 3.6714864,6.64802 3.6714865,-6.64802 1.1145584,9.63766 H 8.4575313 l -0.6818475,-6.20219 -2.989639,5.34988 z"
         style="font-style:normal;font-variant:normal;font-weight:normal;font-stretch:normal;font-family:'Jost*';-inkscape-font-specification:'Jost*';stroke-width:0.32781127"
         id="path5151" />
      <path
         d="m 12.267313,292.08284 v 3.40924 h 4.130422 v 1.049 H 12.267313 11.76904 11.152755 v -9.17872 h 0.616285 0.498273 4.130422 v 1.049 h -4.130422 v 2.62249 h 3.868173 v 1.04899 z"
         style="font-style:normal;font-variant:normal;font-weight:normal;font-stretch:normal;font-family:'Jost*';-inkscape-font-specification:'Jost*';stroke-width:0.32781127"
         id="path5153" />
      <path
         d="m 25.324447,287.36236 h 1.114558 v 9.63765 l -6.949599,-7.29052 v 6.83159 h -1.114558 v -9.63766 l 6.949599,7.29053 z"
         style="font-style:normal;font-variant:normal;font-weight:normal;font-stretch:normal;font-family:'Jost*';-inkscape-font-specification:'Jost*';stroke-width:0.32781127"
         id="path5155" />
      <path
         d="m 29.971375,293.78746 -1.167008,2.75362 h -1.245683 l 4.261547,-9.63766 4.261547,9.63766 h -1.245683 l -1.167008,-2.75362 z m 0.445824,-1.04899 h 2.806064 l -1.403032,-3.30434 z"
         style="font-style:normal;font-variant:normal;font-weight:normal;font-stretch:normal;font-family:'Jost*';-inkscape-font-specification:'Jost*';stroke-width:0.32781127"
         id="path5157" />
      <path
         d="m 41.075779,292.93515 v -1.04899 h 4.261546 c 0,0.64251 -0.104899,1.24568 -0.288473,1.82263 -0.196687,0.57694 -0.485161,1.07522 -0.85231,1.52104 -0.380261,0.44582 -0.839197,0.79986 -1.38992,1.06211 -0.550723,0.26225 -1.167008,0.38026 -1.861968,0.38026 -0.668735,0 -1.28502,-0.1049 -1.848855,-0.34092 -0.576948,-0.23603 -1.062109,-0.56384 -1.481707,-0.98344 -0.419599,-0.41959 -0.74741,-0.93098 -0.983434,-1.50793 -0.236024,-0.57695 -0.340924,-1.20634 -0.340924,-1.88819 0,-0.68185 0.1049,-1.31125 0.340924,-1.88819 0.236024,-0.57695 0.563835,-1.07523 0.983434,-1.49482 0.419598,-0.4196 0.904759,-0.74741 1.481707,-0.98344 0.563835,-0.23602 1.18012,-0.35403 1.848855,-0.35403 0.839197,0 1.586607,0.17046 2.242229,0.49827 0.655623,0.34092 1.180121,0.82608 1.573495,1.45548 l -0.786747,0.72119 c -0.288474,-0.48516 -0.69496,-0.86543 -1.206346,-1.14079 -0.524498,-0.27536 -1.127671,-0.4196 -1.822631,-0.4196 -0.655622,0 -1.23257,0.15735 -1.757068,0.45894 -0.524498,0.3147 -0.944097,0.7343 -1.258796,1.27191 -0.314698,0.53761 -0.458935,1.16701 -0.458935,1.87508 0,0.70807 0.144237,1.33747 0.458935,1.87508 0.314699,0.55072 0.734298,0.97032 1.258796,1.27191 0.524498,0.3147 1.101446,0.45893 1.757068,0.45893 0.603173,0 1.127671,-0.11801 1.573494,-0.35403 0.432711,-0.23603 0.786747,-0.56384 1.062109,-0.95721 0.262249,-0.39338 0.445823,-0.8392 0.550723,-1.31125 z"
         style="font-style:normal;font-variant:normal;font-weight:normal;font-stretch:normal;font-family:'Jost*';-inkscape-font-specification:'Jost*';stroke-width:0.32781127"
         id="path5159" />
      <path
         d="m 48.096061,292.08284 v 3.40924 h 4.130422 v 1.049 h -4.130422 -0.498273 -0.616285 v -9.17872 h 0.616285 0.498273 4.130422 v 1.049 h -4.130422 v 2.62249 h 3.868173 v 1.04899 z"
         style="font-style:normal;font-variant:normal;font-weight:normal;font-stretch:normal;font-family:'Jost*';-inkscape-font-specification:'Jost*';stroke-width:0.32781127"
         id="path5161" />
      <path
         d="m 55.318156,292.86959 v 3.67149 h -1.114558 v -9.17872 h 0.616285 0.498273 1.376808 c 0.59006,0 1.114558,0.11801 1.586607,0.34092 0.472048,0.22292 0.839196,0.53761 1.114558,0.9441 0.275361,0.4196 0.419598,0.90476 0.419598,1.4686 0,0.69496 -0.209799,1.2719 -0.616285,1.73084 -0.406486,0.45893 -0.930984,0.76052 -1.573494,0.91787 l 2.740502,3.77639 h -1.376807 l -2.556928,-3.67149 z m 0,-0.98343 h 1.376808 c 0.59006,0 1.075221,-0.14424 1.44237,-0.45894 0.367148,-0.3147 0.563835,-0.74741 0.563835,-1.31124 0,-0.56384 -0.196687,-0.99655 -0.563835,-1.31125 -0.367149,-0.30159 -0.85231,-0.45894 -1.44237,-0.45894 h -1.376808 z"
         style="font-style:normal;font-variant:normal;font-weight:normal;font-stretch:normal;font-family:'Jost*';-inkscape-font-specification:'Jost*';stroke-width:0.32781127"
         id="path5163" />
      <path
         d="M 61.553742,287.36236 H 62.6683 v 9.17872 h -1.114558 z"
         style="font-style:normal;font-variant:normal;font-weight:normal;font-stretch:normal;font-family:'Jost*';-inkscape-font-specification:'Jost*';stroke-width:0.32781127"
         id="path5165" />
      <path
         d="m 65.869579,292.08284 v 3.40924 h 4.130422 v 1.049 H 65.869579 65.371305 64.75502 v -9.17872 h 0.616285 0.498274 4.130422 v 1.049 h -4.130422 v 2.62249 h 3.868173 v 1.04899 z"
         style="font-style:normal;font-variant:normal;font-weight:normal;font-stretch:normal;font-family:'Jost*';-inkscape-font-specification:'Jost*';stroke-width:0.32781127"
         id="path5167" />
    </g>
    <g
       aria-label="the"
       style="font-style:normal;font-weight:normal;font-size:10.58333302px;line-height:1.25;font-family:sans-serif;letter-spacing:0px;word-spacing:0px;fill:#000000;fill-opacity:1;stroke:none;stroke-width:0.26458332"
       id="text5088">
      <path
         d="m 31.15252,260.59873 h 0.564444 v 1.12889 h 0.529167 v 0.52917 h -0.529167 v 2.71639 H 31.15252 v -2.71639 h -0.529167 v -0.52917 h 0.529167 z"
         style="font-style:normal;font-variant:normal;font-weight:normal;font-stretch:normal;font-size:7.05555534px;font-family:'Jost*';-inkscape-font-specification:'Jost*';stroke-width:0.26458332"
         id="path5170" />
      <path
         d="m 34.893618,262.99762 c 0,-0.53622 -0.232833,-0.81139 -0.691444,-0.81139 -0.246945,0 -0.4445,0.0776 -0.599723,0.23283 -0.155222,0.15523 -0.225777,0.34573 -0.225777,0.57856 v 1.97556 h -0.564445 v -5.50334 h 0.564445 v 2.77284 c 0.09878,-0.17639 0.225777,-0.3175 0.395111,-0.42334 0.169333,-0.10583 0.359833,-0.16228 0.5715,-0.16228 0.331611,0 0.599722,0.11289 0.804333,0.32456 0.204611,0.21167 0.310444,0.52917 0.310444,0.94544 v 2.04612 h -0.564444 z"
         style="font-style:normal;font-variant:normal;font-weight:normal;font-stretch:normal;font-size:7.05555534px;font-family:'Jost*';-inkscape-font-specification:'Jost*';stroke-width:0.26458332"
         id="path5172" />
      <path
         d="m 36.815485,263.49151 c 0.02117,0.33161 0.127,0.58561 0.310444,0.762 0.183445,0.17639 0.423334,0.26105 0.719667,0.26105 0.232833,0 0.430389,-0.0494 0.599722,-0.16227 0.169334,-0.10584 0.303389,-0.24695 0.416278,-0.42334 l 0.458611,0.28928 c -0.112889,0.16933 -0.232833,0.31045 -0.359833,0.43745 -0.134056,0.127 -0.296334,0.21872 -0.479778,0.28927 -0.1905,0.0706 -0.423333,0.0988 -0.705556,0.0988 -0.296333,0 -0.557388,-0.0705 -0.790222,-0.21872 -0.232833,-0.14111 -0.416277,-0.34572 -0.550333,-0.59972 -0.134056,-0.254 -0.197556,-0.55034 -0.197556,-0.87489 0,-0.0564 0,-0.11995 0.0071,-0.17639 0,-0.0564 0.0071,-0.11289 0.02117,-0.16933 0.04233,-0.26812 0.141111,-0.50095 0.282222,-0.70556 0.141111,-0.19756 0.3175,-0.35983 0.543278,-0.47272 0.225777,-0.11289 0.472722,-0.16934 0.754944,-0.16934 0.303389,0 0.5715,0.0706 0.804333,0.20462 0.225778,0.14111 0.409223,0.33161 0.536223,0.57855 0.127,0.24695 0.1905,0.54328 0.1905,0.88195 v 0.0847 c 0,0.0282 -0.0071,0.0564 -0.0071,0.0847 z m 0.01411,-0.47978 h 1.933222 c -0.02822,-0.254 -0.119944,-0.45861 -0.268111,-0.62089 -0.155222,-0.15522 -0.366889,-0.23989 -0.649111,-0.23989 -0.261056,0 -0.486833,0.0776 -0.684389,0.23284 -0.197555,0.15522 -0.303389,0.36689 -0.331611,0.62794 z"
         style="font-style:normal;font-variant:normal;font-weight:normal;font-stretch:normal;font-size:7.05555534px;font-family:'Jost*';-inkscape-font-specification:'Jost*';stroke-width:0.26458332"
         id="path5174" />
    </g>
    <g
       id="g5100"
       transform="translate(0,-0.41633998)">
      <path
         style="fill:#000000;fill-opacity:1;stroke-width:0.15430813"
         d="M 0.04545452,262.42313 H 26.547546 c 0.02518,0 0.04545,0.0203 0.04545,0.0454 v 0.40909 c 0,0.0252 -0.02027,0.0455 -0.04545,0.0455 H 0.04545452 C 0.02027272,262.92313 0,262.90285 0,262.87767 v -0.40909 c 0,-0.0252 0.02027272,-0.0454 0.04545452,-0.0454 z"
         id="rect5094" />
      <path
         style="fill:#000000;fill-opacity:1;stroke-width:0.15430813"
         d="m 43.452456,262.42313 h 26.502091 c 0.02518,0 0.04545,0.0203 0.04545,0.0454 v 0.40909 c 0,0.0252 -0.02027,0.0455 -0.04545,0.0455 H 43.452456 c -0.02518,0 -0.04545,-0.0203 -0.04545,-0.0455 v -0.40909 c 0,-0.0252 0.02027,-0.0454 0.04545,-0.0454 z"
         id="rect5096" />
    </g>
  </g>
</svg>
