<svg class="logo" viewBox="0 0 70 6.68" xmlns="http://www.w3.org/2000/svg"><g stroke-width=".217" aria-label="CONSTELLATIONS"><path d="M.78 3.34c0 .468.105.885.313 1.24.208.365.486.643.833.842.338.208.711.304 1.11.304.426 0 .807-.078 1.137-.252a2.42 2.42 0 0 0 .816-.65v.971c-.26.226-.538.4-.833.503-.304.113-.677.165-1.12.165-.425 0-.824-.07-1.188-.225a3.046 3.046 0 0 1-.963-.651 3.011 3.011 0 0 1-.65-.998C.077 4.208 0 3.791 0 3.34s.078-.868.234-1.25c.156-.381.373-.71.65-.988A2.996 2.996 0 0 1 3.037.217c.443 0 .816.06 1.12.165.295.112.572.277.833.503v.971a2.419 2.419 0 0 0-.816-.65A2.518 2.518 0 0 0 3.037.954c-.4 0-.773.104-1.111.304a2.347 2.347 0 0 0-.833.841c-.208.356-.312.773-.312 1.241zM5.948 3.34c0-.442.07-.85.225-1.232.156-.382.373-.711.65-.989.279-.278.6-.503.981-.66A3.14 3.14 0 0 1 9.028.218c.442 0 .85.086 1.223.243a2.952 2.952 0 0 1 1.622 1.648c.156.382.234.79.234 1.232s-.078.85-.234 1.232a2.99 2.99 0 0 1-.642.998 3.05 3.05 0 0 1-.98.66c-.373.155-.78.233-1.223.233-.443 0-.85-.078-1.224-.234a2.958 2.958 0 0 1-.98-.66 3.011 3.011 0 0 1-.65-.997 3.208 3.208 0 0 1-.226-1.232zm.78 0c0 .46.096.868.295 1.223a2.243 2.243 0 0 0 2.004 1.163c.443 0 .833-.104 1.18-.312.347-.209.616-.486.816-.85.2-.356.304-.764.304-1.224 0-.451-.104-.859-.304-1.223a2.258 2.258 0 0 0-.816-.85 2.241 2.241 0 0 0-1.18-.313 2.241 2.241 0 0 0-2.004 1.163c-.2.364-.295.772-.295 1.223zM17.738.3h.738v6.377l-4.598-4.824v4.52h-.738V-.004l4.598 4.824zM20.145 4.41c.182.416.4.746.65.989.244.243.556.364.938.364.347 0 .607-.086.78-.26.174-.173.26-.416.26-.72a.99.99 0 0 0-.216-.642 1.749 1.749 0 0 0-.538-.416 9.096 9.096 0 0 0-.668-.287 5.204 5.204 0 0 1-.494-.19 2.447 2.447 0 0 1-.495-.304c-.156-.122-.286-.278-.39-.469s-.148-.425-.148-.702c0-.304.07-.573.217-.807.139-.235.347-.417.607-.556.26-.13.573-.2.937-.2.33 0 .608.062.85.183.243.122.443.278.617.469.164.2.303.416.407.65l-.598.4c-.087-.165-.2-.322-.321-.478s-.27-.277-.443-.373a1.19 1.19 0 0 0-.59-.147c-.303 0-.529.078-.685.234-.156.156-.226.373-.226.633 0 .2.061.365.2.503.13.14.303.252.52.356.209.104.443.208.686.295.156.06.32.139.503.226.173.095.347.208.503.347.156.139.278.303.382.503.095.2.147.434.147.711 0 .347-.078.651-.234.911-.156.26-.364.469-.642.608-.278.147-.599.216-.972.216-.503 0-.937-.147-1.318-.46a2.805 2.805 0 0 1-.85-1.214zM24.021.99V.296h3.86V.99h-1.56v5.379h-.738V.99zM29.4 3.42v2.256h2.732v.694h-3.47V.297h3.47V.99H29.4v1.735h2.56v.694zM33.44.3h.738v5.379h2.385v.694H33.44zM37.337.3h.738v5.379h2.385v.694h-3.123zM42.435 4.55l-.772 1.822h-.824l2.82-6.377 2.819 6.377h-.824l-.772-1.822zm.295-.694h1.857l-.929-2.186zM46 .99V.296h3.86V.99h-1.562v5.379h-.737V.99zM50.64.3h.737v6.073h-.738zM52.41 3.34c0-.442.07-.85.226-1.232s.373-.711.65-.989c.278-.278.599-.503.98-.66.374-.156.782-.242 1.224-.242s.85.086 1.223.243a2.952 2.952 0 0 1 1.622 1.648c.157.382.235.79.235 1.232s-.078.85-.234 1.232a2.99 2.99 0 0 1-.642.998 3.05 3.05 0 0 1-.98.66c-.374.155-.781.233-1.224.233s-.85-.078-1.223-.234a2.958 2.958 0 0 1-.98-.66 3.011 3.011 0 0 1-.651-.997 3.208 3.208 0 0 1-.226-1.232zm.781 0c0 .46.095.868.295 1.223a2.243 2.243 0 0 0 2.004 1.163c.443 0 .833-.104 1.18-.312s.616-.486.815-.85c.2-.356.304-.764.304-1.224 0-.451-.104-.859-.304-1.223a2.258 2.258 0 0 0-.815-.85c-.347-.209-.737-.313-1.18-.313a2.24 2.24 0 0 0-2.004 1.163c-.2.364-.295.772-.295 1.223zM64.201.3h.738v6.377L60.34 1.853v4.52h-.738V-.004l4.598 4.824zM66.608 4.41c.182.416.4.746.65.989.244.243.556.364.938.364.347 0 .607-.086.78-.26.174-.173.26-.416.26-.72a.99.99 0 0 0-.216-.642 1.749 1.749 0 0 0-.538-.416 9.096 9.096 0 0 0-.668-.287 5.204 5.204 0 0 1-.494-.19 2.447 2.447 0 0 1-.495-.304c-.156-.122-.286-.278-.39-.469s-.148-.425-.148-.702c0-.304.07-.573.217-.807.139-.235.347-.417.607-.556.26-.13.573-.2.937-.2.33 0 .608.062.85.183.243.122.443.278.617.469.164.2.303.416.407.65l-.598.4a3.283 3.283 0 0 0-.321-.478 1.411 1.411 0 0 0-.443-.373 1.19 1.19 0 0 0-.59-.147c-.303 0-.529.078-.685.234-.156.156-.226.373-.226.633 0 .2.061.365.2.503.13.14.303.252.52.356.209.104.443.208.686.295.156.06.32.139.503.226.173.095.347.208.503.347.156.139.278.303.382.503.095.2.147.434.147.711 0 .347-.078.651-.234.911-.156.26-.364.469-.642.608-.278.147-.599.216-.972.216-.503 0-.937-.147-1.318-.46a2.805 2.805 0 0 1-.85-1.214z"/></g></svg>
