<svg class="logo" xmlns="http://www.w3.org/2000/svg" viewBox="0 0 70 37.53"><g aria-label="GLASS" style="line-height:1.25;-inkscape-font-specification:'Jost*'" font-weight="400" font-size="23.924" font-family="Jost*" letter-spacing="0" word-spacing="0" stroke-width=".598"><path d="M8.732 18.615V16.7h7.776c0 1.172-.192 2.273-.527 3.325a8.76 8.76 0 0 1-1.555 2.775 7.548 7.548 0 0 1-2.536 1.938c-1.004.479-2.129.694-3.397.694-1.22 0-2.344-.191-3.373-.622a8.096 8.096 0 0 1-2.704-1.794c-.765-.766-1.363-1.699-1.794-2.751C.192 19.213 0 18.064 0 16.82c0-1.244.191-2.392.622-3.445a8.2 8.2 0 0 1 1.794-2.727A8.096 8.096 0 0 1 5.12 8.854c1.029-.431 2.153-.646 3.373-.646 1.531 0 2.895.31 4.091.909a7.3 7.3 0 0 1 2.871 2.655l-1.435 1.316c-.527-.885-1.268-1.579-2.201-2.081-.957-.503-2.058-.766-3.326-.766-1.196 0-2.249.287-3.206.838a6.47 6.47 0 0 0-2.296 2.32c-.575.981-.838 2.13-.838 3.421 0 1.292.263 2.44.838 3.422a6.114 6.114 0 0 0 2.296 2.32c.957.574 2.01.838 3.206.838 1.1 0 2.058-.216 2.871-.646a5.67 5.67 0 0 0 1.938-1.747 7.068 7.068 0 0 0 1.005-2.392zM19.508 8.447h2.033V23.28h6.58v1.914h-8.613zM33.564 20.17l-2.13 5.024h-2.272L36.937 7.61l7.775 17.584H42.44l-2.13-5.024zm.813-1.914h5.12l-2.56-6.03zM47.515 19.787c.503 1.148 1.1 2.058 1.795 2.727.67.67 1.53 1.005 2.583 1.005.957 0 1.675-.239 2.154-.718.478-.478.717-1.148.717-1.985 0-.718-.215-1.292-.598-1.77-.383-.455-.885-.838-1.483-1.149-.598-.287-1.22-.55-1.842-.79-.43-.143-.885-.31-1.364-.526a6.745 6.745 0 0 1-1.364-.837 4.09 4.09 0 0 1-1.076-1.292c-.287-.526-.407-1.172-.407-1.938 0-.837.191-1.579.598-2.225.383-.646.957-1.148 1.675-1.531.718-.359 1.579-.55 2.584-.55.909 0 1.674.167 2.344.502a5.71 5.71 0 0 1 1.699 1.292c.454.55.837 1.148 1.124 1.794l-1.65 1.1c-.24-.454-.55-.884-.886-1.315a3.89 3.89 0 0 0-1.22-1.029 3.282 3.282 0 0 0-1.627-.406c-.837 0-1.459.215-1.89.645-.43.431-.622 1.03-.622 1.747 0 .55.168 1.005.55 1.388.36.382.838.693 1.436.98.574.288 1.22.575 1.89.814.43.167.885.383 1.388.622.478.263.957.574 1.387.957.43.383.766.837 1.053 1.388.263.55.407 1.196.407 1.961 0 .957-.216 1.795-.646 2.512-.43.718-1.005 1.292-1.77 1.675-.766.407-1.651.598-2.68.598-1.388 0-2.584-.407-3.637-1.268-1.052-.861-1.818-1.962-2.344-3.35zM60.646 19.787c.502 1.148 1.1 2.058 1.794 2.727.67.67 1.531 1.005 2.584 1.005.957 0 1.674-.239 2.153-.718.478-.478.718-1.148.718-1.985 0-.718-.216-1.292-.598-1.77-.383-.455-.886-.838-1.484-1.149-.598-.287-1.22-.55-1.842-.79-.43-.143-.885-.31-1.364-.526a6.745 6.745 0 0 1-1.363-.837 4.09 4.09 0 0 1-1.077-1.292c-.287-.526-.407-1.172-.407-1.938 0-.837.192-1.579.598-2.225.383-.646.957-1.148 1.675-1.531.718-.359 1.58-.55 2.584-.55.91 0 1.675.167 2.345.502a5.71 5.71 0 0 1 1.698 1.292c.455.55.838 1.148 1.125 1.794l-1.651 1.1c-.24-.454-.55-.884-.885-1.315a3.89 3.89 0 0 0-1.22-1.029 3.282 3.282 0 0 0-1.627-.406c-.838 0-1.46.215-1.89.645-.431.431-.622 1.03-.622 1.747 0 .55.167 1.005.55 1.388.359.382.837.693 1.435.98.575.288 1.22.575 1.89.814.431.167.886.383 1.388.622.478.263.957.574 1.388.957.43.383.765.837 1.052 1.388.263.55.407 1.196.407 1.961 0 .957-.215 1.795-.646 2.512-.43.718-1.005 1.292-1.77 1.675-.766.407-1.651.598-2.68.598-1.387 0-2.584-.407-3.636-1.268-1.053-.861-1.819-1.962-2.345-3.35z" style="-inkscape-font-specification:'Jost*'"/></g><g aria-label="MENAGERIE" style="line-height:1.25;-inkscape-font-specification:'Jost*'" font-weight="400" font-size="13.112" font-family="Jost*" letter-spacing="0" word-spacing="0" stroke-width=".328"><path d="M1.796 30.87l-.681 6.201H0l1.115-9.637 3.671 6.648 3.672-6.648 1.114 9.637H8.458l-.682-6.202-2.99 5.35zM12.267 32.613v3.41h4.13v1.048h-5.244v-9.178h5.244v1.049h-4.13v2.622h3.868v1.049zM25.324 27.893h1.115v9.637l-6.95-7.29v6.831h-1.114v-9.637l6.95 7.29zM29.971 34.318l-1.167 2.753H27.56l4.261-9.637 4.262 9.637h-1.246l-1.167-2.753zm.446-1.05h2.806l-1.403-3.304zM41.076 33.465v-1.049h4.261a5.96 5.96 0 0 1-.288 1.823 4.8 4.8 0 0 1-.852 1.521c-.38.446-.84.8-1.39 1.062-.551.262-1.167.38-1.862.38-.67 0-1.285-.105-1.85-.34a4.438 4.438 0 0 1-1.48-.984 4.55 4.55 0 0 1-.984-1.508c-.236-.577-.341-1.206-.341-1.888 0-.682.105-1.311.34-1.888a4.494 4.494 0 0 1 .984-1.495c.42-.42.905-.748 1.482-.984a4.74 4.74 0 0 1 1.849-.354c.839 0 1.586.17 2.242.499.656.34 1.18.826 1.573 1.455l-.786.721a3.064 3.064 0 0 0-1.207-1.14c-.524-.276-1.127-.42-1.822-.42-.656 0-1.233.157-1.757.459a3.547 3.547 0 0 0-1.26 1.272c-.314.537-.458 1.167-.458 1.875s.144 1.337.459 1.875c.314.55.734.97 1.259 1.272.524.315 1.101.459 1.757.459.603 0 1.127-.118 1.573-.354a3.108 3.108 0 0 0 1.062-.957c.263-.394.446-.84.551-1.312zM48.096 32.613v3.41h4.13v1.048h-5.244v-9.178h5.244v1.049h-4.13v2.622h3.868v1.049zM55.318 33.4v3.671h-1.114v-9.178H56.695c.59 0 1.115.118 1.587.34.472.223.839.538 1.114.945.275.42.42.904.42 1.468 0 .695-.21 1.272-.617 1.731-.406.459-.93.76-1.573.918l2.74 3.776H58.99L56.433 33.4zm0-.984h1.377c.59 0 1.075-.144 1.442-.459.367-.314.564-.747.564-1.31 0-.565-.197-.997-.564-1.312-.367-.302-.852-.459-1.442-.459h-1.377zM61.554 27.893h1.114v9.178h-1.114zM65.87 32.613v3.41H70v1.048H64.755v-9.178H70v1.049h-4.13v2.622h3.868v1.049z" style="-inkscape-font-specification:'Jost*'"/></g><g aria-label="the" style="line-height:1.25" font-weight="400" font-size="7.056" font-family="Jost*" letter-spacing="0" word-spacing="0" stroke-width=".265"><path d="M31.153 1.129h.564v1.129h.53v.529h-.53v2.716h-.564V2.787h-.53v-.53h.53zM34.894 3.528c0-.536-.233-.812-.692-.812a.808.808 0 0 0-.6.233.776.776 0 0 0-.225.579v1.975h-.565V0h.565v2.773a1.14 1.14 0 0 1 .395-.423c.17-.106.36-.163.571-.163.332 0 .6.113.805.325.204.211.31.529.31.945v2.046h-.564zM36.815 4.022c.022.331.127.585.31.762.184.176.424.26.72.26.233 0 .431-.049.6-.162.17-.105.304-.246.417-.423l.458.29c-.113.169-.233.31-.36.437a1.43 1.43 0 0 1-.48.29c-.19.07-.423.098-.705.098-.296 0-.557-.07-.79-.219a1.509 1.509 0 0 1-.55-.6 1.858 1.858 0 0 1-.198-.874c0-.057 0-.12.007-.177 0-.056.007-.113.021-.17a1.69 1.69 0 0 1 .282-.705 1.47 1.47 0 0 1 .544-.472 1.65 1.65 0 0 1 .755-.17c.303 0 .571.07.804.205.226.141.41.331.536.578.127.247.19.544.19.882v.085c0 .028-.006.056-.006.085zm.015-.48h1.933a1.067 1.067 0 0 0-.268-.621c-.156-.155-.367-.24-.65-.24-.26 0-.486.078-.684.233a.881.881 0 0 0-.331.628z" style="-inkscape-font-specification:'Jost*'"/></g><path d="M.045 2.537h26.503c.025 0 .045.02.045.045v.41c0 .025-.02.045-.045.045H.045A.045.045 0 0 1 0 2.99v-.409c0-.025.02-.045.045-.045zM43.452 2.537h26.503c.025 0 .045.02.045.045v.41c0 .025-.02.045-.045.045H43.452a.045.045 0 0 1-.045-.046v-.409c0-.025.02-.045.045-.045z"/></svg>
